G04 #@! TF.GenerationSoftware,KiCad,Pcbnew,(5.1.4)-1*
G04 #@! TF.CreationDate,2019-09-07T18:34:27-05:00*
G04 #@! TF.ProjectId,BreadboardPowerSupply,42726561-6462-46f6-9172-64506f776572,1*
G04 #@! TF.SameCoordinates,Original*
G04 #@! TF.FileFunction,Legend,Bot*
G04 #@! TF.FilePolarity,Positive*
%FSLAX46Y46*%
G04 Gerber Fmt 4.6, Leading zero omitted, Abs format (unit mm)*
G04 Created by KiCad (PCBNEW (5.1.4)-1) date 2019-09-07 18:34:27*
%MOMM*%
%LPD*%
G04 APERTURE LIST*
%ADD10C,0.150000*%
G04 APERTURE END LIST*
D10*
X132961571Y-72216523D02*
X133009190Y-72359380D01*
X133056809Y-72407000D01*
X133152047Y-72454619D01*
X133294904Y-72454619D01*
X133390142Y-72407000D01*
X133437761Y-72359380D01*
X133485380Y-72264142D01*
X133485380Y-71883190D01*
X132485380Y-71883190D01*
X132485380Y-72216523D01*
X132533000Y-72311761D01*
X132580619Y-72359380D01*
X132675857Y-72407000D01*
X132771095Y-72407000D01*
X132866333Y-72359380D01*
X132913952Y-72311761D01*
X132961571Y-72216523D01*
X132961571Y-71883190D01*
X133485380Y-72883190D02*
X132818714Y-72883190D01*
X133009190Y-72883190D02*
X132913952Y-72930809D01*
X132866333Y-72978428D01*
X132818714Y-73073666D01*
X132818714Y-73168904D01*
X133437761Y-73883190D02*
X133485380Y-73787952D01*
X133485380Y-73597476D01*
X133437761Y-73502238D01*
X133342523Y-73454619D01*
X132961571Y-73454619D01*
X132866333Y-73502238D01*
X132818714Y-73597476D01*
X132818714Y-73787952D01*
X132866333Y-73883190D01*
X132961571Y-73930809D01*
X133056809Y-73930809D01*
X133152047Y-73454619D01*
X133485380Y-74787952D02*
X132961571Y-74787952D01*
X132866333Y-74740333D01*
X132818714Y-74645095D01*
X132818714Y-74454619D01*
X132866333Y-74359380D01*
X133437761Y-74787952D02*
X133485380Y-74692714D01*
X133485380Y-74454619D01*
X133437761Y-74359380D01*
X133342523Y-74311761D01*
X133247285Y-74311761D01*
X133152047Y-74359380D01*
X133104428Y-74454619D01*
X133104428Y-74692714D01*
X133056809Y-74787952D01*
X133485380Y-75692714D02*
X132485380Y-75692714D01*
X133437761Y-75692714D02*
X133485380Y-75597476D01*
X133485380Y-75407000D01*
X133437761Y-75311761D01*
X133390142Y-75264142D01*
X133294904Y-75216523D01*
X133009190Y-75216523D01*
X132913952Y-75264142D01*
X132866333Y-75311761D01*
X132818714Y-75407000D01*
X132818714Y-75597476D01*
X132866333Y-75692714D01*
X132961571Y-76502238D02*
X133009190Y-76645095D01*
X133056809Y-76692714D01*
X133152047Y-76740333D01*
X133294904Y-76740333D01*
X133390142Y-76692714D01*
X133437761Y-76645095D01*
X133485380Y-76549857D01*
X133485380Y-76168904D01*
X132485380Y-76168904D01*
X132485380Y-76502238D01*
X132533000Y-76597476D01*
X132580619Y-76645095D01*
X132675857Y-76692714D01*
X132771095Y-76692714D01*
X132866333Y-76645095D01*
X132913952Y-76597476D01*
X132961571Y-76502238D01*
X132961571Y-76168904D01*
X133485380Y-77311761D02*
X133437761Y-77216523D01*
X133390142Y-77168904D01*
X133294904Y-77121285D01*
X133009190Y-77121285D01*
X132913952Y-77168904D01*
X132866333Y-77216523D01*
X132818714Y-77311761D01*
X132818714Y-77454619D01*
X132866333Y-77549857D01*
X132913952Y-77597476D01*
X133009190Y-77645095D01*
X133294904Y-77645095D01*
X133390142Y-77597476D01*
X133437761Y-77549857D01*
X133485380Y-77454619D01*
X133485380Y-77311761D01*
X133485380Y-78502238D02*
X132961571Y-78502238D01*
X132866333Y-78454619D01*
X132818714Y-78359380D01*
X132818714Y-78168904D01*
X132866333Y-78073666D01*
X133437761Y-78502238D02*
X133485380Y-78407000D01*
X133485380Y-78168904D01*
X133437761Y-78073666D01*
X133342523Y-78026047D01*
X133247285Y-78026047D01*
X133152047Y-78073666D01*
X133104428Y-78168904D01*
X133104428Y-78407000D01*
X133056809Y-78502238D01*
X133485380Y-78978428D02*
X132818714Y-78978428D01*
X133009190Y-78978428D02*
X132913952Y-79026047D01*
X132866333Y-79073666D01*
X132818714Y-79168904D01*
X132818714Y-79264142D01*
X133485380Y-80026047D02*
X132485380Y-80026047D01*
X133437761Y-80026047D02*
X133485380Y-79930809D01*
X133485380Y-79740333D01*
X133437761Y-79645095D01*
X133390142Y-79597476D01*
X133294904Y-79549857D01*
X133009190Y-79549857D01*
X132913952Y-79597476D01*
X132866333Y-79645095D01*
X132818714Y-79740333D01*
X132818714Y-79930809D01*
X132866333Y-80026047D01*
X133485380Y-81264142D02*
X132485380Y-81264142D01*
X132485380Y-81645095D01*
X132533000Y-81740333D01*
X132580619Y-81787952D01*
X132675857Y-81835571D01*
X132818714Y-81835571D01*
X132913952Y-81787952D01*
X132961571Y-81740333D01*
X133009190Y-81645095D01*
X133009190Y-81264142D01*
X133485380Y-82407000D02*
X133437761Y-82311761D01*
X133390142Y-82264142D01*
X133294904Y-82216523D01*
X133009190Y-82216523D01*
X132913952Y-82264142D01*
X132866333Y-82311761D01*
X132818714Y-82407000D01*
X132818714Y-82549857D01*
X132866333Y-82645095D01*
X132913952Y-82692714D01*
X133009190Y-82740333D01*
X133294904Y-82740333D01*
X133390142Y-82692714D01*
X133437761Y-82645095D01*
X133485380Y-82549857D01*
X133485380Y-82407000D01*
X132818714Y-83073666D02*
X133485380Y-83264142D01*
X133009190Y-83454619D01*
X133485380Y-83645095D01*
X132818714Y-83835571D01*
X133437761Y-84597476D02*
X133485380Y-84502238D01*
X133485380Y-84311761D01*
X133437761Y-84216523D01*
X133342523Y-84168904D01*
X132961571Y-84168904D01*
X132866333Y-84216523D01*
X132818714Y-84311761D01*
X132818714Y-84502238D01*
X132866333Y-84597476D01*
X132961571Y-84645095D01*
X133056809Y-84645095D01*
X133152047Y-84168904D01*
X133485380Y-85073666D02*
X132818714Y-85073666D01*
X133009190Y-85073666D02*
X132913952Y-85121285D01*
X132866333Y-85168904D01*
X132818714Y-85264142D01*
X132818714Y-85359380D01*
X133437761Y-86407000D02*
X133485380Y-86549857D01*
X133485380Y-86787952D01*
X133437761Y-86883190D01*
X133390142Y-86930809D01*
X133294904Y-86978428D01*
X133199666Y-86978428D01*
X133104428Y-86930809D01*
X133056809Y-86883190D01*
X133009190Y-86787952D01*
X132961571Y-86597476D01*
X132913952Y-86502238D01*
X132866333Y-86454619D01*
X132771095Y-86407000D01*
X132675857Y-86407000D01*
X132580619Y-86454619D01*
X132533000Y-86502238D01*
X132485380Y-86597476D01*
X132485380Y-86835571D01*
X132533000Y-86978428D01*
X132818714Y-87835571D02*
X133485380Y-87835571D01*
X132818714Y-87407000D02*
X133342523Y-87407000D01*
X133437761Y-87454619D01*
X133485380Y-87549857D01*
X133485380Y-87692714D01*
X133437761Y-87787952D01*
X133390142Y-87835571D01*
X132818714Y-88311761D02*
X133818714Y-88311761D01*
X132866333Y-88311761D02*
X132818714Y-88407000D01*
X132818714Y-88597476D01*
X132866333Y-88692714D01*
X132913952Y-88740333D01*
X133009190Y-88787952D01*
X133294904Y-88787952D01*
X133390142Y-88740333D01*
X133437761Y-88692714D01*
X133485380Y-88597476D01*
X133485380Y-88407000D01*
X133437761Y-88311761D01*
X132818714Y-89216523D02*
X133818714Y-89216523D01*
X132866333Y-89216523D02*
X132818714Y-89311761D01*
X132818714Y-89502238D01*
X132866333Y-89597476D01*
X132913952Y-89645095D01*
X133009190Y-89692714D01*
X133294904Y-89692714D01*
X133390142Y-89645095D01*
X133437761Y-89597476D01*
X133485380Y-89502238D01*
X133485380Y-89311761D01*
X133437761Y-89216523D01*
X133485380Y-90264142D02*
X133437761Y-90168904D01*
X133342523Y-90121285D01*
X132485380Y-90121285D01*
X132818714Y-90549857D02*
X133485380Y-90787952D01*
X132818714Y-91026047D02*
X133485380Y-90787952D01*
X133723476Y-90692714D01*
X133771095Y-90645095D01*
X133818714Y-90549857D01*
X135135380Y-71502238D02*
X134135380Y-71502238D01*
X134135380Y-71740333D01*
X134183000Y-71883190D01*
X134278238Y-71978428D01*
X134373476Y-72026047D01*
X134563952Y-72073666D01*
X134706809Y-72073666D01*
X134897285Y-72026047D01*
X134992523Y-71978428D01*
X135087761Y-71883190D01*
X135135380Y-71740333D01*
X135135380Y-71502238D01*
X135087761Y-72883190D02*
X135135380Y-72787952D01*
X135135380Y-72597476D01*
X135087761Y-72502238D01*
X134992523Y-72454619D01*
X134611571Y-72454619D01*
X134516333Y-72502238D01*
X134468714Y-72597476D01*
X134468714Y-72787952D01*
X134516333Y-72883190D01*
X134611571Y-72930809D01*
X134706809Y-72930809D01*
X134802047Y-72454619D01*
X135087761Y-73311761D02*
X135135380Y-73407000D01*
X135135380Y-73597476D01*
X135087761Y-73692714D01*
X134992523Y-73740333D01*
X134944904Y-73740333D01*
X134849666Y-73692714D01*
X134802047Y-73597476D01*
X134802047Y-73454619D01*
X134754428Y-73359380D01*
X134659190Y-73311761D01*
X134611571Y-73311761D01*
X134516333Y-73359380D01*
X134468714Y-73454619D01*
X134468714Y-73597476D01*
X134516333Y-73692714D01*
X135135380Y-74168904D02*
X134468714Y-74168904D01*
X134135380Y-74168904D02*
X134183000Y-74121285D01*
X134230619Y-74168904D01*
X134183000Y-74216523D01*
X134135380Y-74168904D01*
X134230619Y-74168904D01*
X134468714Y-75073666D02*
X135278238Y-75073666D01*
X135373476Y-75026047D01*
X135421095Y-74978428D01*
X135468714Y-74883190D01*
X135468714Y-74740333D01*
X135421095Y-74645095D01*
X135087761Y-75073666D02*
X135135380Y-74978428D01*
X135135380Y-74787952D01*
X135087761Y-74692714D01*
X135040142Y-74645095D01*
X134944904Y-74597476D01*
X134659190Y-74597476D01*
X134563952Y-74645095D01*
X134516333Y-74692714D01*
X134468714Y-74787952D01*
X134468714Y-74978428D01*
X134516333Y-75073666D01*
X134468714Y-75549857D02*
X135135380Y-75549857D01*
X134563952Y-75549857D02*
X134516333Y-75597476D01*
X134468714Y-75692714D01*
X134468714Y-75835571D01*
X134516333Y-75930809D01*
X134611571Y-75978428D01*
X135135380Y-75978428D01*
X135087761Y-76835571D02*
X135135380Y-76740333D01*
X135135380Y-76549857D01*
X135087761Y-76454619D01*
X134992523Y-76407000D01*
X134611571Y-76407000D01*
X134516333Y-76454619D01*
X134468714Y-76549857D01*
X134468714Y-76740333D01*
X134516333Y-76835571D01*
X134611571Y-76883190D01*
X134706809Y-76883190D01*
X134802047Y-76407000D01*
X135135380Y-77740333D02*
X134135380Y-77740333D01*
X135087761Y-77740333D02*
X135135380Y-77645095D01*
X135135380Y-77454619D01*
X135087761Y-77359380D01*
X135040142Y-77311761D01*
X134944904Y-77264142D01*
X134659190Y-77264142D01*
X134563952Y-77311761D01*
X134516333Y-77359380D01*
X134468714Y-77454619D01*
X134468714Y-77645095D01*
X134516333Y-77740333D01*
X135135380Y-78978428D02*
X134135380Y-78978428D01*
X134516333Y-78978428D02*
X134468714Y-79073666D01*
X134468714Y-79264142D01*
X134516333Y-79359380D01*
X134563952Y-79407000D01*
X134659190Y-79454619D01*
X134944904Y-79454619D01*
X135040142Y-79407000D01*
X135087761Y-79359380D01*
X135135380Y-79264142D01*
X135135380Y-79073666D01*
X135087761Y-78978428D01*
X134468714Y-79787952D02*
X135135380Y-80026047D01*
X134468714Y-80264142D02*
X135135380Y-80026047D01*
X135373476Y-79930809D01*
X135421095Y-79883190D01*
X135468714Y-79787952D01*
X135135380Y-81407000D02*
X134135380Y-81407000D01*
X134135380Y-81787952D01*
X134183000Y-81883190D01*
X134230619Y-81930809D01*
X134325857Y-81978428D01*
X134468714Y-81978428D01*
X134563952Y-81930809D01*
X134611571Y-81883190D01*
X134659190Y-81787952D01*
X134659190Y-81407000D01*
X135135380Y-82407000D02*
X134468714Y-82407000D01*
X134659190Y-82407000D02*
X134563952Y-82454619D01*
X134516333Y-82502238D01*
X134468714Y-82597476D01*
X134468714Y-82692714D01*
X134468714Y-83454619D02*
X135135380Y-83454619D01*
X134468714Y-83026047D02*
X134992523Y-83026047D01*
X135087761Y-83073666D01*
X135135380Y-83168904D01*
X135135380Y-83311761D01*
X135087761Y-83407000D01*
X135040142Y-83454619D01*
X135135380Y-84359380D02*
X134135380Y-84359380D01*
X135087761Y-84359380D02*
X135135380Y-84264142D01*
X135135380Y-84073666D01*
X135087761Y-83978428D01*
X135040142Y-83930809D01*
X134944904Y-83883190D01*
X134659190Y-83883190D01*
X134563952Y-83930809D01*
X134516333Y-83978428D01*
X134468714Y-84073666D01*
X134468714Y-84264142D01*
X134516333Y-84359380D01*
X135135380Y-84835571D02*
X134135380Y-84835571D01*
X135135380Y-85264142D02*
X134611571Y-85264142D01*
X134516333Y-85216523D01*
X134468714Y-85121285D01*
X134468714Y-84978428D01*
X134516333Y-84883190D01*
X134563952Y-84835571D01*
X134468714Y-85645095D02*
X135135380Y-85883190D01*
X134468714Y-86121285D01*
X135135380Y-86502238D02*
X134468714Y-86502238D01*
X134135380Y-86502238D02*
X134183000Y-86454619D01*
X134230619Y-86502238D01*
X134183000Y-86549857D01*
X134135380Y-86502238D01*
X134230619Y-86502238D01*
X134135380Y-87597476D02*
X134135380Y-88168904D01*
X135135380Y-87883190D02*
X134135380Y-87883190D01*
X135135380Y-88502238D02*
X134135380Y-88502238D01*
X135135380Y-88930809D02*
X134611571Y-88930809D01*
X134516333Y-88883190D01*
X134468714Y-88787952D01*
X134468714Y-88645095D01*
X134516333Y-88549857D01*
X134563952Y-88502238D01*
X135135380Y-89549857D02*
X135087761Y-89454619D01*
X135040142Y-89407000D01*
X134944904Y-89359380D01*
X134659190Y-89359380D01*
X134563952Y-89407000D01*
X134516333Y-89454619D01*
X134468714Y-89549857D01*
X134468714Y-89692714D01*
X134516333Y-89787952D01*
X134563952Y-89835571D01*
X134659190Y-89883190D01*
X134944904Y-89883190D01*
X135040142Y-89835571D01*
X135087761Y-89787952D01*
X135135380Y-89692714D01*
X135135380Y-89549857D01*
X134468714Y-90168904D02*
X134468714Y-90549857D01*
X134135380Y-90311761D02*
X134992523Y-90311761D01*
X135087761Y-90359380D01*
X135135380Y-90454619D01*
X135135380Y-90549857D01*
X135135380Y-91311761D02*
X134611571Y-91311761D01*
X134516333Y-91264142D01*
X134468714Y-91168904D01*
X134468714Y-90978428D01*
X134516333Y-90883190D01*
X135087761Y-91311761D02*
X135135380Y-91216523D01*
X135135380Y-90978428D01*
X135087761Y-90883190D01*
X134992523Y-90835571D01*
X134897285Y-90835571D01*
X134802047Y-90883190D01*
X134754428Y-90978428D01*
X134754428Y-91216523D01*
X134706809Y-91311761D01*
M02*
