G04 #@! TF.GenerationSoftware,KiCad,Pcbnew,(5.1.4)-1*
G04 #@! TF.CreationDate,2019-09-07T18:34:27-05:00*
G04 #@! TF.ProjectId,BreadboardPowerSupply,42726561-6462-46f6-9172-64506f776572,1*
G04 #@! TF.SameCoordinates,Original*
G04 #@! TF.FileFunction,Copper,L2,Bot*
G04 #@! TF.FilePolarity,Positive*
%FSLAX46Y46*%
G04 Gerber Fmt 4.6, Leading zero omitted, Abs format (unit mm)*
G04 Created by KiCad (PCBNEW (5.1.4)-1) date 2019-09-07 18:34:27*
%MOMM*%
%LPD*%
G04 APERTURE LIST*
%ADD10R,2.000000X2.000000*%
%ADD11C,2.000000*%
%ADD12R,1.600000X1.600000*%
%ADD13C,1.600000*%
%ADD14R,2.200000X2.200000*%
%ADD15O,2.200000X2.200000*%
%ADD16C,1.800000*%
%ADD17R,1.800000X1.800000*%
%ADD18R,2.600000X2.600000*%
%ADD19C,2.600000*%
%ADD20R,1.700000X1.700000*%
%ADD21O,1.700000X1.700000*%
%ADD22O,1.600000X1.600000*%
%ADD23R,1.900000X1.900000*%
%ADD24C,1.900000*%
%ADD25R,1.905000X2.000000*%
%ADD26O,1.905000X2.000000*%
%ADD27C,0.300000*%
%ADD28C,0.254000*%
G04 APERTURE END LIST*
D10*
X130302000Y-56642000D03*
D11*
X135302000Y-56642000D03*
D12*
X140589000Y-54737000D03*
D13*
X143089000Y-54737000D03*
D14*
X128778000Y-81872666D03*
D15*
X138938000Y-81872666D03*
X138938000Y-73406000D03*
D14*
X128778000Y-73406000D03*
X128778000Y-86106000D03*
D15*
X138938000Y-86106000D03*
X138938000Y-77639333D03*
D14*
X128778000Y-77639333D03*
D16*
X148082000Y-85598000D03*
D17*
X145542000Y-85598000D03*
X145542000Y-64008000D03*
D16*
X148082000Y-64008000D03*
D18*
X141478000Y-94869000D03*
D19*
X135478000Y-94869000D03*
X138478000Y-99569000D03*
D20*
X152019000Y-96901000D03*
D21*
X154559000Y-96901000D03*
X152019000Y-99441000D03*
X154559000Y-99441000D03*
X154686000Y-54483000D03*
X152146000Y-54483000D03*
X154686000Y-51943000D03*
D20*
X152146000Y-51943000D03*
D13*
X146431000Y-99695000D03*
D22*
X146431000Y-92075000D03*
X140970000Y-61341000D03*
D13*
X140970000Y-68961000D03*
D23*
X146812000Y-77183000D03*
D24*
X146812000Y-74683000D03*
X146812000Y-72183000D03*
D25*
X130302000Y-68453000D03*
D26*
X132842000Y-68453000D03*
X135382000Y-68453000D03*
D27*
X154559000Y-99441000D02*
X152019000Y-99441000D01*
X145542000Y-86798000D02*
X145542000Y-85598000D01*
X150273990Y-91529990D02*
X145542000Y-86798000D01*
X150273990Y-97695990D02*
X150273990Y-91529990D01*
X152019000Y-99441000D02*
X150273990Y-97695990D01*
X145542000Y-84243333D02*
X138938000Y-77639333D01*
X145542000Y-85598000D02*
X145542000Y-84243333D01*
X138938000Y-76083699D02*
X138938000Y-73406000D01*
X138938000Y-77639333D02*
X138938000Y-76083699D01*
X145542000Y-66802000D02*
X145542000Y-64008000D01*
X138938000Y-73406000D02*
X145542000Y-66802000D01*
X132842000Y-68500500D02*
X132842000Y-68453000D01*
X136647501Y-72306001D02*
X132842000Y-68500500D01*
X137838001Y-72306001D02*
X136647501Y-72306001D01*
X138938000Y-73406000D02*
X137838001Y-72306001D01*
X136716213Y-56642000D02*
X135302000Y-56642000D01*
X139376000Y-56642000D02*
X136716213Y-56642000D01*
X145542000Y-62808000D02*
X139376000Y-56642000D01*
X145542000Y-64008000D02*
X145542000Y-62808000D01*
X142289001Y-53937001D02*
X143089000Y-54737000D01*
X141838999Y-53486999D02*
X142289001Y-53937001D01*
X138457001Y-53486999D02*
X141838999Y-53486999D01*
X135302000Y-56642000D02*
X138457001Y-53486999D01*
X151892000Y-54737000D02*
X152146000Y-54483000D01*
X143089000Y-54737000D02*
X151892000Y-54737000D01*
X152146000Y-54483000D02*
X154686000Y-54483000D01*
X138938000Y-91409000D02*
X138938000Y-86106000D01*
X135478000Y-94869000D02*
X138938000Y-91409000D01*
X137244667Y-86106000D02*
X128778000Y-77639333D01*
X138938000Y-86106000D02*
X137244667Y-86106000D01*
D28*
G36*
X156312000Y-55855000D02*
G01*
X155238761Y-55855000D01*
X155317252Y-55827157D01*
X155567355Y-55678178D01*
X155783588Y-55483269D01*
X155957641Y-55249920D01*
X156082825Y-54987099D01*
X156127476Y-54839890D01*
X156006155Y-54610000D01*
X154813000Y-54610000D01*
X154813000Y-54630000D01*
X154559000Y-54630000D01*
X154559000Y-54610000D01*
X152273000Y-54610000D01*
X152273000Y-54630000D01*
X152019000Y-54630000D01*
X152019000Y-54610000D01*
X150825845Y-54610000D01*
X150704524Y-54839890D01*
X150749175Y-54987099D01*
X150874359Y-55249920D01*
X151048412Y-55483269D01*
X151264645Y-55678178D01*
X151514748Y-55827157D01*
X151593239Y-55855000D01*
X150781419Y-55855000D01*
X150749000Y-55851807D01*
X150716581Y-55855000D01*
X150619617Y-55864550D01*
X150495207Y-55902290D01*
X150380550Y-55963575D01*
X150280052Y-56046052D01*
X150197575Y-56146550D01*
X150136290Y-56261207D01*
X150098550Y-56385617D01*
X150085807Y-56515000D01*
X150089001Y-56547429D01*
X150089000Y-94709581D01*
X150085807Y-94742000D01*
X150098550Y-94871383D01*
X150136290Y-94995793D01*
X150197575Y-95110450D01*
X150247152Y-95170859D01*
X150280052Y-95210948D01*
X150380550Y-95293425D01*
X150495207Y-95354710D01*
X150619617Y-95392450D01*
X150749000Y-95405193D01*
X150781419Y-95402000D01*
X156312001Y-95402000D01*
X156312000Y-101067000D01*
X146868533Y-101067000D01*
X147110727Y-100966680D01*
X147345759Y-100809637D01*
X147545637Y-100609759D01*
X147702680Y-100374727D01*
X147810853Y-100113574D01*
X147866000Y-99836335D01*
X147866000Y-99797890D01*
X150577524Y-99797890D01*
X150622175Y-99945099D01*
X150747359Y-100207920D01*
X150921412Y-100441269D01*
X151137645Y-100636178D01*
X151387748Y-100785157D01*
X151662109Y-100882481D01*
X151892000Y-100761814D01*
X151892000Y-99568000D01*
X152146000Y-99568000D01*
X152146000Y-100761814D01*
X152375891Y-100882481D01*
X152650252Y-100785157D01*
X152900355Y-100636178D01*
X153116588Y-100441269D01*
X153289000Y-100210120D01*
X153461412Y-100441269D01*
X153677645Y-100636178D01*
X153927748Y-100785157D01*
X154202109Y-100882481D01*
X154432000Y-100761814D01*
X154432000Y-99568000D01*
X154686000Y-99568000D01*
X154686000Y-100761814D01*
X154915891Y-100882481D01*
X155190252Y-100785157D01*
X155440355Y-100636178D01*
X155656588Y-100441269D01*
X155830641Y-100207920D01*
X155955825Y-99945099D01*
X156000476Y-99797890D01*
X155879155Y-99568000D01*
X154686000Y-99568000D01*
X154432000Y-99568000D01*
X152146000Y-99568000D01*
X151892000Y-99568000D01*
X150698845Y-99568000D01*
X150577524Y-99797890D01*
X147866000Y-99797890D01*
X147866000Y-99553665D01*
X147810853Y-99276426D01*
X147702680Y-99015273D01*
X147545637Y-98780241D01*
X147345759Y-98580363D01*
X147110727Y-98423320D01*
X146849574Y-98315147D01*
X146572335Y-98260000D01*
X146289665Y-98260000D01*
X146012426Y-98315147D01*
X145751273Y-98423320D01*
X145516241Y-98580363D01*
X145316363Y-98780241D01*
X145159320Y-99015273D01*
X145051147Y-99276426D01*
X144996000Y-99553665D01*
X144996000Y-99836335D01*
X145051147Y-100113574D01*
X145159320Y-100374727D01*
X145316363Y-100609759D01*
X145516241Y-100809637D01*
X145751273Y-100966680D01*
X145993467Y-101067000D01*
X139716504Y-101067000D01*
X139981013Y-100802491D01*
X140192775Y-100485566D01*
X140338639Y-100133419D01*
X140413000Y-99759581D01*
X140413000Y-99378419D01*
X140338639Y-99004581D01*
X140192775Y-98652434D01*
X139981013Y-98335509D01*
X139711491Y-98065987D01*
X139394566Y-97854225D01*
X139042419Y-97708361D01*
X138668581Y-97634000D01*
X138287419Y-97634000D01*
X137913581Y-97708361D01*
X137561434Y-97854225D01*
X137244509Y-98065987D01*
X136974987Y-98335509D01*
X136763225Y-98652434D01*
X136617361Y-99004581D01*
X136543000Y-99378419D01*
X136543000Y-99759581D01*
X136617361Y-100133419D01*
X136763225Y-100485566D01*
X136974987Y-100802491D01*
X137239496Y-101067000D01*
X127533000Y-101067000D01*
X127533000Y-87825588D01*
X127553518Y-87831812D01*
X127678000Y-87844072D01*
X129878000Y-87844072D01*
X130002482Y-87831812D01*
X130122180Y-87795502D01*
X130232494Y-87736537D01*
X130329185Y-87657185D01*
X130408537Y-87560494D01*
X130467502Y-87450180D01*
X130503812Y-87330482D01*
X130516072Y-87206000D01*
X130516072Y-85006000D01*
X130503812Y-84881518D01*
X130467502Y-84761820D01*
X130408537Y-84651506D01*
X130329185Y-84554815D01*
X130232494Y-84475463D01*
X130122180Y-84416498D01*
X130002482Y-84380188D01*
X129878000Y-84367928D01*
X127678000Y-84367928D01*
X127553518Y-84380188D01*
X127533000Y-84386412D01*
X127533000Y-83592254D01*
X127553518Y-83598478D01*
X127678000Y-83610738D01*
X129878000Y-83610738D01*
X130002482Y-83598478D01*
X130122180Y-83562168D01*
X130232494Y-83503203D01*
X130329185Y-83423851D01*
X130408537Y-83327160D01*
X130467502Y-83216846D01*
X130503812Y-83097148D01*
X130516072Y-82972666D01*
X130516072Y-80772666D01*
X130503812Y-80648184D01*
X130467502Y-80528486D01*
X130408537Y-80418172D01*
X130329185Y-80321481D01*
X130232494Y-80242129D01*
X130122180Y-80183164D01*
X130002482Y-80146854D01*
X129878000Y-80134594D01*
X127678000Y-80134594D01*
X127553518Y-80146854D01*
X127533000Y-80153078D01*
X127533000Y-79358921D01*
X127553518Y-79365145D01*
X127678000Y-79377405D01*
X129405915Y-79377405D01*
X136662325Y-86633816D01*
X136686903Y-86663764D01*
X136716851Y-86688342D01*
X136716854Y-86688345D01*
X136746226Y-86712450D01*
X136806434Y-86761862D01*
X136942807Y-86834754D01*
X137056339Y-86869194D01*
X137090779Y-86879641D01*
X137105157Y-86881057D01*
X137206106Y-86891000D01*
X137206113Y-86891000D01*
X137244666Y-86894797D01*
X137283219Y-86891000D01*
X137390297Y-86891000D01*
X137488421Y-87074578D01*
X137705234Y-87338766D01*
X137969422Y-87555579D01*
X138153001Y-87653704D01*
X138153000Y-91083842D01*
X136173985Y-93062857D01*
X136042419Y-93008361D01*
X135668581Y-92934000D01*
X135287419Y-92934000D01*
X134913581Y-93008361D01*
X134561434Y-93154225D01*
X134244509Y-93365987D01*
X133974987Y-93635509D01*
X133763225Y-93952434D01*
X133617361Y-94304581D01*
X133543000Y-94678419D01*
X133543000Y-95059581D01*
X133617361Y-95433419D01*
X133763225Y-95785566D01*
X133974987Y-96102491D01*
X134244509Y-96372013D01*
X134561434Y-96583775D01*
X134913581Y-96729639D01*
X135287419Y-96804000D01*
X135668581Y-96804000D01*
X136042419Y-96729639D01*
X136394566Y-96583775D01*
X136711491Y-96372013D01*
X136981013Y-96102491D01*
X137192775Y-95785566D01*
X137338639Y-95433419D01*
X137413000Y-95059581D01*
X137413000Y-94678419D01*
X137338639Y-94304581D01*
X137284143Y-94173015D01*
X137888158Y-93569000D01*
X139539928Y-93569000D01*
X139539928Y-96169000D01*
X139552188Y-96293482D01*
X139588498Y-96413180D01*
X139647463Y-96523494D01*
X139726815Y-96620185D01*
X139823506Y-96699537D01*
X139933820Y-96758502D01*
X140053518Y-96794812D01*
X140178000Y-96807072D01*
X142778000Y-96807072D01*
X142902482Y-96794812D01*
X143022180Y-96758502D01*
X143132494Y-96699537D01*
X143229185Y-96620185D01*
X143308537Y-96523494D01*
X143367502Y-96413180D01*
X143403812Y-96293482D01*
X143416072Y-96169000D01*
X143416072Y-96051000D01*
X150530928Y-96051000D01*
X150530928Y-97751000D01*
X150543188Y-97875482D01*
X150579498Y-97995180D01*
X150638463Y-98105494D01*
X150717815Y-98202185D01*
X150814506Y-98281537D01*
X150924820Y-98340502D01*
X151005466Y-98364966D01*
X150921412Y-98440731D01*
X150747359Y-98674080D01*
X150622175Y-98936901D01*
X150577524Y-99084110D01*
X150698845Y-99314000D01*
X151892000Y-99314000D01*
X151892000Y-99294000D01*
X152146000Y-99294000D01*
X152146000Y-99314000D01*
X154432000Y-99314000D01*
X154432000Y-99294000D01*
X154686000Y-99294000D01*
X154686000Y-99314000D01*
X155879155Y-99314000D01*
X156000476Y-99084110D01*
X155955825Y-98936901D01*
X155830641Y-98674080D01*
X155656588Y-98440731D01*
X155440355Y-98245822D01*
X155323477Y-98176201D01*
X155388014Y-98141706D01*
X155614134Y-97956134D01*
X155799706Y-97730014D01*
X155937599Y-97472034D01*
X156022513Y-97192111D01*
X156051185Y-96901000D01*
X156022513Y-96609889D01*
X155937599Y-96329966D01*
X155799706Y-96071986D01*
X155614134Y-95845866D01*
X155388014Y-95660294D01*
X155130034Y-95522401D01*
X154850111Y-95437487D01*
X154631950Y-95416000D01*
X154486050Y-95416000D01*
X154267889Y-95437487D01*
X153987966Y-95522401D01*
X153729986Y-95660294D01*
X153503866Y-95845866D01*
X153479393Y-95875687D01*
X153458502Y-95806820D01*
X153399537Y-95696506D01*
X153320185Y-95599815D01*
X153223494Y-95520463D01*
X153113180Y-95461498D01*
X152993482Y-95425188D01*
X152869000Y-95412928D01*
X151169000Y-95412928D01*
X151044518Y-95425188D01*
X150924820Y-95461498D01*
X150814506Y-95520463D01*
X150717815Y-95599815D01*
X150638463Y-95696506D01*
X150579498Y-95806820D01*
X150543188Y-95926518D01*
X150530928Y-96051000D01*
X143416072Y-96051000D01*
X143416072Y-93569000D01*
X143403812Y-93444518D01*
X143367502Y-93324820D01*
X143308537Y-93214506D01*
X143229185Y-93117815D01*
X143132494Y-93038463D01*
X143022180Y-92979498D01*
X142902482Y-92943188D01*
X142778000Y-92930928D01*
X140178000Y-92930928D01*
X140053518Y-92943188D01*
X139933820Y-92979498D01*
X139823506Y-93038463D01*
X139726815Y-93117815D01*
X139647463Y-93214506D01*
X139588498Y-93324820D01*
X139552188Y-93444518D01*
X139539928Y-93569000D01*
X137888158Y-93569000D01*
X139382158Y-92075000D01*
X144989057Y-92075000D01*
X145016764Y-92356309D01*
X145098818Y-92626808D01*
X145232068Y-92876101D01*
X145411392Y-93094608D01*
X145629899Y-93273932D01*
X145879192Y-93407182D01*
X146149691Y-93489236D01*
X146360508Y-93510000D01*
X146501492Y-93510000D01*
X146712309Y-93489236D01*
X146982808Y-93407182D01*
X147232101Y-93273932D01*
X147450608Y-93094608D01*
X147629932Y-92876101D01*
X147763182Y-92626808D01*
X147845236Y-92356309D01*
X147872943Y-92075000D01*
X147845236Y-91793691D01*
X147763182Y-91523192D01*
X147629932Y-91273899D01*
X147450608Y-91055392D01*
X147232101Y-90876068D01*
X146982808Y-90742818D01*
X146712309Y-90660764D01*
X146501492Y-90640000D01*
X146360508Y-90640000D01*
X146149691Y-90660764D01*
X145879192Y-90742818D01*
X145629899Y-90876068D01*
X145411392Y-91055392D01*
X145232068Y-91273899D01*
X145098818Y-91523192D01*
X145016764Y-91793691D01*
X144989057Y-92075000D01*
X139382158Y-92075000D01*
X139465817Y-91991341D01*
X139495764Y-91966764D01*
X139593862Y-91847233D01*
X139666754Y-91710860D01*
X139666754Y-91710859D01*
X139711642Y-91562887D01*
X139719020Y-91487974D01*
X139723000Y-91447561D01*
X139723000Y-91447556D01*
X139726797Y-91409000D01*
X139723000Y-91370445D01*
X139723000Y-87653703D01*
X139906578Y-87555579D01*
X140170766Y-87338766D01*
X140387579Y-87074578D01*
X140548686Y-86773168D01*
X140632157Y-86498000D01*
X144003928Y-86498000D01*
X144016188Y-86622482D01*
X144052498Y-86742180D01*
X144111463Y-86852494D01*
X144190815Y-86949185D01*
X144287506Y-87028537D01*
X144397820Y-87087502D01*
X144517518Y-87123812D01*
X144642000Y-87136072D01*
X145256250Y-87133000D01*
X145415000Y-86974250D01*
X145415000Y-85725000D01*
X144165750Y-85725000D01*
X144007000Y-85883750D01*
X144003928Y-86498000D01*
X140632157Y-86498000D01*
X140647895Y-86446119D01*
X140681394Y-86106000D01*
X140647895Y-85765881D01*
X140548686Y-85438832D01*
X140387579Y-85137422D01*
X140170766Y-84873234D01*
X139957243Y-84698000D01*
X144003928Y-84698000D01*
X144007000Y-85312250D01*
X144165750Y-85471000D01*
X145415000Y-85471000D01*
X145415000Y-84221750D01*
X145669000Y-84221750D01*
X145669000Y-85471000D01*
X145689000Y-85471000D01*
X145689000Y-85725000D01*
X145669000Y-85725000D01*
X145669000Y-86974250D01*
X145827750Y-87133000D01*
X146442000Y-87136072D01*
X146566482Y-87123812D01*
X146686180Y-87087502D01*
X146796494Y-87028537D01*
X146893185Y-86949185D01*
X146972537Y-86852494D01*
X147031502Y-86742180D01*
X147037056Y-86723873D01*
X147103495Y-86790312D01*
X147354905Y-86958299D01*
X147634257Y-87074011D01*
X147930816Y-87133000D01*
X148233184Y-87133000D01*
X148529743Y-87074011D01*
X148809095Y-86958299D01*
X149060505Y-86790312D01*
X149274312Y-86576505D01*
X149442299Y-86325095D01*
X149558011Y-86045743D01*
X149617000Y-85749184D01*
X149617000Y-85446816D01*
X149558011Y-85150257D01*
X149442299Y-84870905D01*
X149274312Y-84619495D01*
X149060505Y-84405688D01*
X148809095Y-84237701D01*
X148529743Y-84121989D01*
X148233184Y-84063000D01*
X147930816Y-84063000D01*
X147634257Y-84121989D01*
X147354905Y-84237701D01*
X147103495Y-84405688D01*
X147037056Y-84472127D01*
X147031502Y-84453820D01*
X146972537Y-84343506D01*
X146893185Y-84246815D01*
X146796494Y-84167463D01*
X146686180Y-84108498D01*
X146566482Y-84072188D01*
X146442000Y-84059928D01*
X145827750Y-84063000D01*
X145669000Y-84221750D01*
X145415000Y-84221750D01*
X145256250Y-84063000D01*
X144642000Y-84059928D01*
X144517518Y-84072188D01*
X144397820Y-84108498D01*
X144287506Y-84167463D01*
X144190815Y-84246815D01*
X144111463Y-84343506D01*
X144052498Y-84453820D01*
X144016188Y-84573518D01*
X144003928Y-84698000D01*
X139957243Y-84698000D01*
X139906578Y-84656421D01*
X139605168Y-84495314D01*
X139278119Y-84396105D01*
X139023225Y-84371000D01*
X138852775Y-84371000D01*
X138597881Y-84396105D01*
X138270832Y-84495314D01*
X137969422Y-84656421D01*
X137705234Y-84873234D01*
X137488421Y-85137422D01*
X137452831Y-85204006D01*
X134121491Y-81872666D01*
X137194606Y-81872666D01*
X137228105Y-82212785D01*
X137327314Y-82539834D01*
X137488421Y-82841244D01*
X137705234Y-83105432D01*
X137969422Y-83322245D01*
X138270832Y-83483352D01*
X138597881Y-83582561D01*
X138852775Y-83607666D01*
X139023225Y-83607666D01*
X139278119Y-83582561D01*
X139605168Y-83483352D01*
X139906578Y-83322245D01*
X140170766Y-83105432D01*
X140387579Y-82841244D01*
X140548686Y-82539834D01*
X140647895Y-82212785D01*
X140681394Y-81872666D01*
X140647895Y-81532547D01*
X140548686Y-81205498D01*
X140387579Y-80904088D01*
X140170766Y-80639900D01*
X139906578Y-80423087D01*
X139605168Y-80261980D01*
X139278119Y-80162771D01*
X139023225Y-80137666D01*
X138852775Y-80137666D01*
X138597881Y-80162771D01*
X138270832Y-80261980D01*
X137969422Y-80423087D01*
X137705234Y-80639900D01*
X137488421Y-80904088D01*
X137327314Y-81205498D01*
X137228105Y-81532547D01*
X137194606Y-81872666D01*
X134121491Y-81872666D01*
X130516072Y-78267248D01*
X130516072Y-78035455D01*
X137248825Y-78035455D01*
X137313425Y-78248427D01*
X137463469Y-78553662D01*
X137670178Y-78823760D01*
X137925609Y-79048341D01*
X138219946Y-79218775D01*
X138541877Y-79328512D01*
X138811000Y-79210933D01*
X138811000Y-77766333D01*
X139065000Y-77766333D01*
X139065000Y-79210933D01*
X139334123Y-79328512D01*
X139656054Y-79218775D01*
X139950391Y-79048341D01*
X140205822Y-78823760D01*
X140412531Y-78553662D01*
X140562575Y-78248427D01*
X140627175Y-78035455D01*
X140509125Y-77766333D01*
X139065000Y-77766333D01*
X138811000Y-77766333D01*
X137366875Y-77766333D01*
X137248825Y-78035455D01*
X130516072Y-78035455D01*
X130516072Y-77243211D01*
X137248825Y-77243211D01*
X137366875Y-77512333D01*
X138811000Y-77512333D01*
X138811000Y-76067733D01*
X139065000Y-76067733D01*
X139065000Y-77512333D01*
X140509125Y-77512333D01*
X140627175Y-77243211D01*
X140562575Y-77030239D01*
X140412531Y-76725004D01*
X140205822Y-76454906D01*
X139953434Y-76233000D01*
X145223928Y-76233000D01*
X145223928Y-78133000D01*
X145236188Y-78257482D01*
X145272498Y-78377180D01*
X145331463Y-78487494D01*
X145410815Y-78584185D01*
X145507506Y-78663537D01*
X145617820Y-78722502D01*
X145737518Y-78758812D01*
X145862000Y-78771072D01*
X147762000Y-78771072D01*
X147886482Y-78758812D01*
X148006180Y-78722502D01*
X148116494Y-78663537D01*
X148213185Y-78584185D01*
X148292537Y-78487494D01*
X148351502Y-78377180D01*
X148387812Y-78257482D01*
X148400072Y-78133000D01*
X148400072Y-76233000D01*
X148387812Y-76108518D01*
X148351502Y-75988820D01*
X148292537Y-75878506D01*
X148213185Y-75781815D01*
X148116494Y-75702463D01*
X148057979Y-75671186D01*
X148216609Y-75433779D01*
X148336089Y-75145327D01*
X148397000Y-74839109D01*
X148397000Y-74526891D01*
X148336089Y-74220673D01*
X148216609Y-73932221D01*
X148043150Y-73672621D01*
X147822379Y-73451850D01*
X147794168Y-73433000D01*
X147822379Y-73414150D01*
X148043150Y-73193379D01*
X148216609Y-72933779D01*
X148336089Y-72645327D01*
X148397000Y-72339109D01*
X148397000Y-72026891D01*
X148336089Y-71720673D01*
X148216609Y-71432221D01*
X148043150Y-71172621D01*
X147822379Y-70951850D01*
X147562779Y-70778391D01*
X147274327Y-70658911D01*
X146968109Y-70598000D01*
X146655891Y-70598000D01*
X146349673Y-70658911D01*
X146061221Y-70778391D01*
X145801621Y-70951850D01*
X145580850Y-71172621D01*
X145407391Y-71432221D01*
X145287911Y-71720673D01*
X145227000Y-72026891D01*
X145227000Y-72339109D01*
X145287911Y-72645327D01*
X145407391Y-72933779D01*
X145580850Y-73193379D01*
X145801621Y-73414150D01*
X145829832Y-73433000D01*
X145801621Y-73451850D01*
X145580850Y-73672621D01*
X145407391Y-73932221D01*
X145287911Y-74220673D01*
X145227000Y-74526891D01*
X145227000Y-74839109D01*
X145287911Y-75145327D01*
X145407391Y-75433779D01*
X145566021Y-75671186D01*
X145507506Y-75702463D01*
X145410815Y-75781815D01*
X145331463Y-75878506D01*
X145272498Y-75988820D01*
X145236188Y-76108518D01*
X145223928Y-76233000D01*
X139953434Y-76233000D01*
X139950391Y-76230325D01*
X139656054Y-76059891D01*
X139334123Y-75950154D01*
X139065000Y-76067733D01*
X138811000Y-76067733D01*
X138541877Y-75950154D01*
X138219946Y-76059891D01*
X137925609Y-76230325D01*
X137670178Y-76454906D01*
X137463469Y-76725004D01*
X137313425Y-77030239D01*
X137248825Y-77243211D01*
X130516072Y-77243211D01*
X130516072Y-76539333D01*
X130503812Y-76414851D01*
X130467502Y-76295153D01*
X130408537Y-76184839D01*
X130329185Y-76088148D01*
X130232494Y-76008796D01*
X130122180Y-75949831D01*
X130002482Y-75913521D01*
X129878000Y-75901261D01*
X127678000Y-75901261D01*
X127553518Y-75913521D01*
X127533000Y-75919745D01*
X127533000Y-75125588D01*
X127553518Y-75131812D01*
X127678000Y-75144072D01*
X129878000Y-75144072D01*
X130002482Y-75131812D01*
X130122180Y-75095502D01*
X130232494Y-75036537D01*
X130329185Y-74957185D01*
X130408537Y-74860494D01*
X130467502Y-74750180D01*
X130503812Y-74630482D01*
X130516072Y-74506000D01*
X130516072Y-73802122D01*
X137248825Y-73802122D01*
X137313425Y-74015094D01*
X137463469Y-74320329D01*
X137670178Y-74590427D01*
X137925609Y-74815008D01*
X138219946Y-74985442D01*
X138541877Y-75095179D01*
X138811000Y-74977600D01*
X138811000Y-73533000D01*
X139065000Y-73533000D01*
X139065000Y-74977600D01*
X139334123Y-75095179D01*
X139656054Y-74985442D01*
X139950391Y-74815008D01*
X140205822Y-74590427D01*
X140412531Y-74320329D01*
X140562575Y-74015094D01*
X140627175Y-73802122D01*
X140509125Y-73533000D01*
X139065000Y-73533000D01*
X138811000Y-73533000D01*
X137366875Y-73533000D01*
X137248825Y-73802122D01*
X130516072Y-73802122D01*
X130516072Y-73009878D01*
X137248825Y-73009878D01*
X137366875Y-73279000D01*
X138811000Y-73279000D01*
X138811000Y-71834400D01*
X139065000Y-71834400D01*
X139065000Y-73279000D01*
X140509125Y-73279000D01*
X140627175Y-73009878D01*
X140562575Y-72796906D01*
X140412531Y-72491671D01*
X140205822Y-72221573D01*
X139950391Y-71996992D01*
X139656054Y-71826558D01*
X139334123Y-71716821D01*
X139065000Y-71834400D01*
X138811000Y-71834400D01*
X138541877Y-71716821D01*
X138219946Y-71826558D01*
X137925609Y-71996992D01*
X137670178Y-72221573D01*
X137463469Y-72491671D01*
X137313425Y-72796906D01*
X137248825Y-73009878D01*
X130516072Y-73009878D01*
X130516072Y-72306000D01*
X130503812Y-72181518D01*
X130467502Y-72061820D01*
X130408537Y-71951506D01*
X130329185Y-71854815D01*
X130232494Y-71775463D01*
X130122180Y-71716498D01*
X130002482Y-71680188D01*
X129878000Y-71667928D01*
X127678000Y-71667928D01*
X127553518Y-71680188D01*
X127533000Y-71686412D01*
X127533000Y-67453000D01*
X128711428Y-67453000D01*
X128711428Y-69453000D01*
X128723688Y-69577482D01*
X128759998Y-69697180D01*
X128818963Y-69807494D01*
X128898315Y-69904185D01*
X128995006Y-69983537D01*
X129105320Y-70042502D01*
X129225018Y-70078812D01*
X129349500Y-70091072D01*
X131254500Y-70091072D01*
X131378982Y-70078812D01*
X131498680Y-70042502D01*
X131608994Y-69983537D01*
X131705685Y-69904185D01*
X131785037Y-69807494D01*
X131834059Y-69715781D01*
X131975077Y-69828969D01*
X132250906Y-69972571D01*
X132469020Y-70043563D01*
X132715000Y-69923594D01*
X132715000Y-68580000D01*
X132695000Y-68580000D01*
X132695000Y-68326000D01*
X132715000Y-68326000D01*
X132715000Y-66982406D01*
X132969000Y-66982406D01*
X132969000Y-68326000D01*
X132989000Y-68326000D01*
X132989000Y-68580000D01*
X132969000Y-68580000D01*
X132969000Y-69923594D01*
X133214980Y-70043563D01*
X133433094Y-69972571D01*
X133708923Y-69828969D01*
X133951437Y-69634315D01*
X134106837Y-69449101D01*
X134254037Y-69628463D01*
X134495766Y-69826845D01*
X134771552Y-69974255D01*
X135070797Y-70065030D01*
X135382000Y-70095681D01*
X135693204Y-70065030D01*
X135992449Y-69974255D01*
X136268235Y-69826845D01*
X136509963Y-69628463D01*
X136708345Y-69386734D01*
X136855755Y-69110948D01*
X136944114Y-68819665D01*
X139535000Y-68819665D01*
X139535000Y-69102335D01*
X139590147Y-69379574D01*
X139698320Y-69640727D01*
X139855363Y-69875759D01*
X140055241Y-70075637D01*
X140290273Y-70232680D01*
X140551426Y-70340853D01*
X140828665Y-70396000D01*
X141111335Y-70396000D01*
X141388574Y-70340853D01*
X141649727Y-70232680D01*
X141884759Y-70075637D01*
X142084637Y-69875759D01*
X142241680Y-69640727D01*
X142349853Y-69379574D01*
X142405000Y-69102335D01*
X142405000Y-68819665D01*
X142349853Y-68542426D01*
X142241680Y-68281273D01*
X142084637Y-68046241D01*
X141884759Y-67846363D01*
X141649727Y-67689320D01*
X141388574Y-67581147D01*
X141111335Y-67526000D01*
X140828665Y-67526000D01*
X140551426Y-67581147D01*
X140290273Y-67689320D01*
X140055241Y-67846363D01*
X139855363Y-68046241D01*
X139698320Y-68281273D01*
X139590147Y-68542426D01*
X139535000Y-68819665D01*
X136944114Y-68819665D01*
X136946530Y-68811703D01*
X136969500Y-68578485D01*
X136969500Y-68327514D01*
X136946530Y-68094296D01*
X136855755Y-67795051D01*
X136708345Y-67519265D01*
X136509963Y-67277537D01*
X136268234Y-67079155D01*
X135992448Y-66931745D01*
X135693203Y-66840970D01*
X135382000Y-66810319D01*
X135070796Y-66840970D01*
X134771551Y-66931745D01*
X134495765Y-67079155D01*
X134254037Y-67277537D01*
X134106838Y-67456900D01*
X133951437Y-67271685D01*
X133708923Y-67077031D01*
X133433094Y-66933429D01*
X133214980Y-66862437D01*
X132969000Y-66982406D01*
X132715000Y-66982406D01*
X132469020Y-66862437D01*
X132250906Y-66933429D01*
X131975077Y-67077031D01*
X131834059Y-67190219D01*
X131785037Y-67098506D01*
X131705685Y-67001815D01*
X131608994Y-66922463D01*
X131498680Y-66863498D01*
X131378982Y-66827188D01*
X131254500Y-66814928D01*
X129349500Y-66814928D01*
X129225018Y-66827188D01*
X129105320Y-66863498D01*
X128995006Y-66922463D01*
X128898315Y-67001815D01*
X128818963Y-67098506D01*
X128759998Y-67208820D01*
X128723688Y-67328518D01*
X128711428Y-67453000D01*
X127533000Y-67453000D01*
X127533000Y-64908000D01*
X144003928Y-64908000D01*
X144016188Y-65032482D01*
X144052498Y-65152180D01*
X144111463Y-65262494D01*
X144190815Y-65359185D01*
X144287506Y-65438537D01*
X144397820Y-65497502D01*
X144517518Y-65533812D01*
X144642000Y-65546072D01*
X145256250Y-65543000D01*
X145415000Y-65384250D01*
X145415000Y-64135000D01*
X144165750Y-64135000D01*
X144007000Y-64293750D01*
X144003928Y-64908000D01*
X127533000Y-64908000D01*
X127533000Y-63108000D01*
X144003928Y-63108000D01*
X144007000Y-63722250D01*
X144165750Y-63881000D01*
X145415000Y-63881000D01*
X145415000Y-62631750D01*
X145669000Y-62631750D01*
X145669000Y-63881000D01*
X145689000Y-63881000D01*
X145689000Y-64135000D01*
X145669000Y-64135000D01*
X145669000Y-65384250D01*
X145827750Y-65543000D01*
X146442000Y-65546072D01*
X146566482Y-65533812D01*
X146686180Y-65497502D01*
X146796494Y-65438537D01*
X146893185Y-65359185D01*
X146972537Y-65262494D01*
X147031502Y-65152180D01*
X147037056Y-65133873D01*
X147103495Y-65200312D01*
X147354905Y-65368299D01*
X147634257Y-65484011D01*
X147930816Y-65543000D01*
X148233184Y-65543000D01*
X148529743Y-65484011D01*
X148809095Y-65368299D01*
X149060505Y-65200312D01*
X149274312Y-64986505D01*
X149442299Y-64735095D01*
X149558011Y-64455743D01*
X149617000Y-64159184D01*
X149617000Y-63856816D01*
X149558011Y-63560257D01*
X149442299Y-63280905D01*
X149274312Y-63029495D01*
X149060505Y-62815688D01*
X148809095Y-62647701D01*
X148529743Y-62531989D01*
X148233184Y-62473000D01*
X147930816Y-62473000D01*
X147634257Y-62531989D01*
X147354905Y-62647701D01*
X147103495Y-62815688D01*
X147037056Y-62882127D01*
X147031502Y-62863820D01*
X146972537Y-62753506D01*
X146893185Y-62656815D01*
X146796494Y-62577463D01*
X146686180Y-62518498D01*
X146566482Y-62482188D01*
X146442000Y-62469928D01*
X145827750Y-62473000D01*
X145669000Y-62631750D01*
X145415000Y-62631750D01*
X145256250Y-62473000D01*
X144642000Y-62469928D01*
X144517518Y-62482188D01*
X144397820Y-62518498D01*
X144287506Y-62577463D01*
X144190815Y-62656815D01*
X144111463Y-62753506D01*
X144052498Y-62863820D01*
X144016188Y-62983518D01*
X144003928Y-63108000D01*
X127533000Y-63108000D01*
X127533000Y-61341000D01*
X139528057Y-61341000D01*
X139555764Y-61622309D01*
X139637818Y-61892808D01*
X139771068Y-62142101D01*
X139950392Y-62360608D01*
X140168899Y-62539932D01*
X140418192Y-62673182D01*
X140688691Y-62755236D01*
X140899508Y-62776000D01*
X141040492Y-62776000D01*
X141251309Y-62755236D01*
X141521808Y-62673182D01*
X141771101Y-62539932D01*
X141989608Y-62360608D01*
X142168932Y-62142101D01*
X142302182Y-61892808D01*
X142384236Y-61622309D01*
X142411943Y-61341000D01*
X142384236Y-61059691D01*
X142302182Y-60789192D01*
X142168932Y-60539899D01*
X141989608Y-60321392D01*
X141771101Y-60142068D01*
X141521808Y-60008818D01*
X141251309Y-59926764D01*
X141040492Y-59906000D01*
X140899508Y-59906000D01*
X140688691Y-59926764D01*
X140418192Y-60008818D01*
X140168899Y-60142068D01*
X139950392Y-60321392D01*
X139771068Y-60539899D01*
X139637818Y-60789192D01*
X139555764Y-61059691D01*
X139528057Y-61341000D01*
X127533000Y-61341000D01*
X127533000Y-55642000D01*
X128663928Y-55642000D01*
X128663928Y-57642000D01*
X128676188Y-57766482D01*
X128712498Y-57886180D01*
X128771463Y-57996494D01*
X128850815Y-58093185D01*
X128947506Y-58172537D01*
X129057820Y-58231502D01*
X129177518Y-58267812D01*
X129302000Y-58280072D01*
X131302000Y-58280072D01*
X131426482Y-58267812D01*
X131546180Y-58231502D01*
X131656494Y-58172537D01*
X131753185Y-58093185D01*
X131832537Y-57996494D01*
X131891502Y-57886180D01*
X131924496Y-57777413D01*
X134346192Y-57777413D01*
X134441956Y-58041814D01*
X134731571Y-58182704D01*
X135043108Y-58264384D01*
X135364595Y-58283718D01*
X135683675Y-58239961D01*
X135988088Y-58134795D01*
X136162044Y-58041814D01*
X136257808Y-57777413D01*
X135302000Y-56821605D01*
X134346192Y-57777413D01*
X131924496Y-57777413D01*
X131927812Y-57766482D01*
X131940072Y-57642000D01*
X131940072Y-56704595D01*
X133660282Y-56704595D01*
X133704039Y-57023675D01*
X133809205Y-57328088D01*
X133902186Y-57502044D01*
X134166587Y-57597808D01*
X135122395Y-56642000D01*
X135481605Y-56642000D01*
X136437413Y-57597808D01*
X136701814Y-57502044D01*
X136842704Y-57212429D01*
X136924384Y-56900892D01*
X136943718Y-56579405D01*
X136899961Y-56260325D01*
X136794795Y-55955912D01*
X136701814Y-55781956D01*
X136437413Y-55686192D01*
X135481605Y-56642000D01*
X135122395Y-56642000D01*
X134166587Y-55686192D01*
X133902186Y-55781956D01*
X133761296Y-56071571D01*
X133679616Y-56383108D01*
X133660282Y-56704595D01*
X131940072Y-56704595D01*
X131940072Y-55642000D01*
X131927812Y-55517518D01*
X131924497Y-55506587D01*
X134346192Y-55506587D01*
X135302000Y-56462395D01*
X136257808Y-55506587D01*
X136162044Y-55242186D01*
X135872429Y-55101296D01*
X135560892Y-55019616D01*
X135239405Y-55000282D01*
X134920325Y-55044039D01*
X134615912Y-55149205D01*
X134441956Y-55242186D01*
X134346192Y-55506587D01*
X131924497Y-55506587D01*
X131891502Y-55397820D01*
X131832537Y-55287506D01*
X131753185Y-55190815D01*
X131656494Y-55111463D01*
X131546180Y-55052498D01*
X131426482Y-55016188D01*
X131302000Y-55003928D01*
X129302000Y-55003928D01*
X129177518Y-55016188D01*
X129057820Y-55052498D01*
X128947506Y-55111463D01*
X128850815Y-55190815D01*
X128771463Y-55287506D01*
X128712498Y-55397820D01*
X128676188Y-55517518D01*
X128663928Y-55642000D01*
X127533000Y-55642000D01*
X127533000Y-53937000D01*
X139150928Y-53937000D01*
X139150928Y-55537000D01*
X139163188Y-55661482D01*
X139199498Y-55781180D01*
X139258463Y-55891494D01*
X139337815Y-55988185D01*
X139434506Y-56067537D01*
X139544820Y-56126502D01*
X139664518Y-56162812D01*
X139789000Y-56175072D01*
X141389000Y-56175072D01*
X141513482Y-56162812D01*
X141633180Y-56126502D01*
X141743494Y-56067537D01*
X141840185Y-55988185D01*
X141919537Y-55891494D01*
X141978502Y-55781180D01*
X141994117Y-55729702D01*
X142275903Y-55729702D01*
X142347486Y-55973671D01*
X142602996Y-56094571D01*
X142877184Y-56163300D01*
X143159512Y-56177217D01*
X143439130Y-56135787D01*
X143705292Y-56040603D01*
X143830514Y-55973671D01*
X143902097Y-55729702D01*
X143089000Y-54916605D01*
X142275903Y-55729702D01*
X141994117Y-55729702D01*
X142014812Y-55661482D01*
X142027072Y-55537000D01*
X142027072Y-55529785D01*
X142096298Y-55550097D01*
X142909395Y-54737000D01*
X143268605Y-54737000D01*
X144081702Y-55550097D01*
X144325671Y-55478514D01*
X144446571Y-55223004D01*
X144515300Y-54948816D01*
X144529217Y-54666488D01*
X144487787Y-54386870D01*
X144392603Y-54120708D01*
X144325671Y-53995486D01*
X144081702Y-53923903D01*
X143268605Y-54737000D01*
X142909395Y-54737000D01*
X142096298Y-53923903D01*
X142027072Y-53944215D01*
X142027072Y-53937000D01*
X142014812Y-53812518D01*
X141994118Y-53744298D01*
X142275903Y-53744298D01*
X143089000Y-54557395D01*
X143902097Y-53744298D01*
X143830514Y-53500329D01*
X143575004Y-53379429D01*
X143300816Y-53310700D01*
X143018488Y-53296783D01*
X142738870Y-53338213D01*
X142472708Y-53433397D01*
X142347486Y-53500329D01*
X142275903Y-53744298D01*
X141994118Y-53744298D01*
X141978502Y-53692820D01*
X141919537Y-53582506D01*
X141840185Y-53485815D01*
X141743494Y-53406463D01*
X141633180Y-53347498D01*
X141513482Y-53311188D01*
X141389000Y-53298928D01*
X139789000Y-53298928D01*
X139664518Y-53311188D01*
X139544820Y-53347498D01*
X139434506Y-53406463D01*
X139337815Y-53485815D01*
X139258463Y-53582506D01*
X139199498Y-53692820D01*
X139163188Y-53812518D01*
X139150928Y-53937000D01*
X127533000Y-53937000D01*
X127533000Y-51093000D01*
X150657928Y-51093000D01*
X150657928Y-52793000D01*
X150670188Y-52917482D01*
X150706498Y-53037180D01*
X150765463Y-53147494D01*
X150844815Y-53244185D01*
X150941506Y-53323537D01*
X151051820Y-53382502D01*
X151132466Y-53406966D01*
X151048412Y-53482731D01*
X150874359Y-53716080D01*
X150749175Y-53978901D01*
X150704524Y-54126110D01*
X150825845Y-54356000D01*
X152019000Y-54356000D01*
X152019000Y-54336000D01*
X152273000Y-54336000D01*
X152273000Y-54356000D01*
X154559000Y-54356000D01*
X154559000Y-54336000D01*
X154813000Y-54336000D01*
X154813000Y-54356000D01*
X156006155Y-54356000D01*
X156127476Y-54126110D01*
X156082825Y-53978901D01*
X155957641Y-53716080D01*
X155783588Y-53482731D01*
X155567355Y-53287822D01*
X155450477Y-53218201D01*
X155515014Y-53183706D01*
X155741134Y-52998134D01*
X155926706Y-52772014D01*
X156064599Y-52514034D01*
X156149513Y-52234111D01*
X156178185Y-51943000D01*
X156149513Y-51651889D01*
X156064599Y-51371966D01*
X155926706Y-51113986D01*
X155741134Y-50887866D01*
X155515014Y-50702294D01*
X155257034Y-50564401D01*
X154977111Y-50479487D01*
X154758950Y-50458000D01*
X154613050Y-50458000D01*
X154394889Y-50479487D01*
X154114966Y-50564401D01*
X153856986Y-50702294D01*
X153630866Y-50887866D01*
X153606393Y-50917687D01*
X153585502Y-50848820D01*
X153526537Y-50738506D01*
X153447185Y-50641815D01*
X153350494Y-50562463D01*
X153240180Y-50503498D01*
X153120482Y-50467188D01*
X152996000Y-50454928D01*
X151296000Y-50454928D01*
X151171518Y-50467188D01*
X151051820Y-50503498D01*
X150941506Y-50562463D01*
X150844815Y-50641815D01*
X150765463Y-50738506D01*
X150706498Y-50848820D01*
X150670188Y-50968518D01*
X150657928Y-51093000D01*
X127533000Y-51093000D01*
X127533000Y-50317000D01*
X156312001Y-50317000D01*
X156312000Y-55855000D01*
X156312000Y-55855000D01*
G37*
X156312000Y-55855000D02*
X155238761Y-55855000D01*
X155317252Y-55827157D01*
X155567355Y-55678178D01*
X155783588Y-55483269D01*
X155957641Y-55249920D01*
X156082825Y-54987099D01*
X156127476Y-54839890D01*
X156006155Y-54610000D01*
X154813000Y-54610000D01*
X154813000Y-54630000D01*
X154559000Y-54630000D01*
X154559000Y-54610000D01*
X152273000Y-54610000D01*
X152273000Y-54630000D01*
X152019000Y-54630000D01*
X152019000Y-54610000D01*
X150825845Y-54610000D01*
X150704524Y-54839890D01*
X150749175Y-54987099D01*
X150874359Y-55249920D01*
X151048412Y-55483269D01*
X151264645Y-55678178D01*
X151514748Y-55827157D01*
X151593239Y-55855000D01*
X150781419Y-55855000D01*
X150749000Y-55851807D01*
X150716581Y-55855000D01*
X150619617Y-55864550D01*
X150495207Y-55902290D01*
X150380550Y-55963575D01*
X150280052Y-56046052D01*
X150197575Y-56146550D01*
X150136290Y-56261207D01*
X150098550Y-56385617D01*
X150085807Y-56515000D01*
X150089001Y-56547429D01*
X150089000Y-94709581D01*
X150085807Y-94742000D01*
X150098550Y-94871383D01*
X150136290Y-94995793D01*
X150197575Y-95110450D01*
X150247152Y-95170859D01*
X150280052Y-95210948D01*
X150380550Y-95293425D01*
X150495207Y-95354710D01*
X150619617Y-95392450D01*
X150749000Y-95405193D01*
X150781419Y-95402000D01*
X156312001Y-95402000D01*
X156312000Y-101067000D01*
X146868533Y-101067000D01*
X147110727Y-100966680D01*
X147345759Y-100809637D01*
X147545637Y-100609759D01*
X147702680Y-100374727D01*
X147810853Y-100113574D01*
X147866000Y-99836335D01*
X147866000Y-99797890D01*
X150577524Y-99797890D01*
X150622175Y-99945099D01*
X150747359Y-100207920D01*
X150921412Y-100441269D01*
X151137645Y-100636178D01*
X151387748Y-100785157D01*
X151662109Y-100882481D01*
X151892000Y-100761814D01*
X151892000Y-99568000D01*
X152146000Y-99568000D01*
X152146000Y-100761814D01*
X152375891Y-100882481D01*
X152650252Y-100785157D01*
X152900355Y-100636178D01*
X153116588Y-100441269D01*
X153289000Y-100210120D01*
X153461412Y-100441269D01*
X153677645Y-100636178D01*
X153927748Y-100785157D01*
X154202109Y-100882481D01*
X154432000Y-100761814D01*
X154432000Y-99568000D01*
X154686000Y-99568000D01*
X154686000Y-100761814D01*
X154915891Y-100882481D01*
X155190252Y-100785157D01*
X155440355Y-100636178D01*
X155656588Y-100441269D01*
X155830641Y-100207920D01*
X155955825Y-99945099D01*
X156000476Y-99797890D01*
X155879155Y-99568000D01*
X154686000Y-99568000D01*
X154432000Y-99568000D01*
X152146000Y-99568000D01*
X151892000Y-99568000D01*
X150698845Y-99568000D01*
X150577524Y-99797890D01*
X147866000Y-99797890D01*
X147866000Y-99553665D01*
X147810853Y-99276426D01*
X147702680Y-99015273D01*
X147545637Y-98780241D01*
X147345759Y-98580363D01*
X147110727Y-98423320D01*
X146849574Y-98315147D01*
X146572335Y-98260000D01*
X146289665Y-98260000D01*
X146012426Y-98315147D01*
X145751273Y-98423320D01*
X145516241Y-98580363D01*
X145316363Y-98780241D01*
X145159320Y-99015273D01*
X145051147Y-99276426D01*
X144996000Y-99553665D01*
X144996000Y-99836335D01*
X145051147Y-100113574D01*
X145159320Y-100374727D01*
X145316363Y-100609759D01*
X145516241Y-100809637D01*
X145751273Y-100966680D01*
X145993467Y-101067000D01*
X139716504Y-101067000D01*
X139981013Y-100802491D01*
X140192775Y-100485566D01*
X140338639Y-100133419D01*
X140413000Y-99759581D01*
X140413000Y-99378419D01*
X140338639Y-99004581D01*
X140192775Y-98652434D01*
X139981013Y-98335509D01*
X139711491Y-98065987D01*
X139394566Y-97854225D01*
X139042419Y-97708361D01*
X138668581Y-97634000D01*
X138287419Y-97634000D01*
X137913581Y-97708361D01*
X137561434Y-97854225D01*
X137244509Y-98065987D01*
X136974987Y-98335509D01*
X136763225Y-98652434D01*
X136617361Y-99004581D01*
X136543000Y-99378419D01*
X136543000Y-99759581D01*
X136617361Y-100133419D01*
X136763225Y-100485566D01*
X136974987Y-100802491D01*
X137239496Y-101067000D01*
X127533000Y-101067000D01*
X127533000Y-87825588D01*
X127553518Y-87831812D01*
X127678000Y-87844072D01*
X129878000Y-87844072D01*
X130002482Y-87831812D01*
X130122180Y-87795502D01*
X130232494Y-87736537D01*
X130329185Y-87657185D01*
X130408537Y-87560494D01*
X130467502Y-87450180D01*
X130503812Y-87330482D01*
X130516072Y-87206000D01*
X130516072Y-85006000D01*
X130503812Y-84881518D01*
X130467502Y-84761820D01*
X130408537Y-84651506D01*
X130329185Y-84554815D01*
X130232494Y-84475463D01*
X130122180Y-84416498D01*
X130002482Y-84380188D01*
X129878000Y-84367928D01*
X127678000Y-84367928D01*
X127553518Y-84380188D01*
X127533000Y-84386412D01*
X127533000Y-83592254D01*
X127553518Y-83598478D01*
X127678000Y-83610738D01*
X129878000Y-83610738D01*
X130002482Y-83598478D01*
X130122180Y-83562168D01*
X130232494Y-83503203D01*
X130329185Y-83423851D01*
X130408537Y-83327160D01*
X130467502Y-83216846D01*
X130503812Y-83097148D01*
X130516072Y-82972666D01*
X130516072Y-80772666D01*
X130503812Y-80648184D01*
X130467502Y-80528486D01*
X130408537Y-80418172D01*
X130329185Y-80321481D01*
X130232494Y-80242129D01*
X130122180Y-80183164D01*
X130002482Y-80146854D01*
X129878000Y-80134594D01*
X127678000Y-80134594D01*
X127553518Y-80146854D01*
X127533000Y-80153078D01*
X127533000Y-79358921D01*
X127553518Y-79365145D01*
X127678000Y-79377405D01*
X129405915Y-79377405D01*
X136662325Y-86633816D01*
X136686903Y-86663764D01*
X136716851Y-86688342D01*
X136716854Y-86688345D01*
X136746226Y-86712450D01*
X136806434Y-86761862D01*
X136942807Y-86834754D01*
X137056339Y-86869194D01*
X137090779Y-86879641D01*
X137105157Y-86881057D01*
X137206106Y-86891000D01*
X137206113Y-86891000D01*
X137244666Y-86894797D01*
X137283219Y-86891000D01*
X137390297Y-86891000D01*
X137488421Y-87074578D01*
X137705234Y-87338766D01*
X137969422Y-87555579D01*
X138153001Y-87653704D01*
X138153000Y-91083842D01*
X136173985Y-93062857D01*
X136042419Y-93008361D01*
X135668581Y-92934000D01*
X135287419Y-92934000D01*
X134913581Y-93008361D01*
X134561434Y-93154225D01*
X134244509Y-93365987D01*
X133974987Y-93635509D01*
X133763225Y-93952434D01*
X133617361Y-94304581D01*
X133543000Y-94678419D01*
X133543000Y-95059581D01*
X133617361Y-95433419D01*
X133763225Y-95785566D01*
X133974987Y-96102491D01*
X134244509Y-96372013D01*
X134561434Y-96583775D01*
X134913581Y-96729639D01*
X135287419Y-96804000D01*
X135668581Y-96804000D01*
X136042419Y-96729639D01*
X136394566Y-96583775D01*
X136711491Y-96372013D01*
X136981013Y-96102491D01*
X137192775Y-95785566D01*
X137338639Y-95433419D01*
X137413000Y-95059581D01*
X137413000Y-94678419D01*
X137338639Y-94304581D01*
X137284143Y-94173015D01*
X137888158Y-93569000D01*
X139539928Y-93569000D01*
X139539928Y-96169000D01*
X139552188Y-96293482D01*
X139588498Y-96413180D01*
X139647463Y-96523494D01*
X139726815Y-96620185D01*
X139823506Y-96699537D01*
X139933820Y-96758502D01*
X140053518Y-96794812D01*
X140178000Y-96807072D01*
X142778000Y-96807072D01*
X142902482Y-96794812D01*
X143022180Y-96758502D01*
X143132494Y-96699537D01*
X143229185Y-96620185D01*
X143308537Y-96523494D01*
X143367502Y-96413180D01*
X143403812Y-96293482D01*
X143416072Y-96169000D01*
X143416072Y-96051000D01*
X150530928Y-96051000D01*
X150530928Y-97751000D01*
X150543188Y-97875482D01*
X150579498Y-97995180D01*
X150638463Y-98105494D01*
X150717815Y-98202185D01*
X150814506Y-98281537D01*
X150924820Y-98340502D01*
X151005466Y-98364966D01*
X150921412Y-98440731D01*
X150747359Y-98674080D01*
X150622175Y-98936901D01*
X150577524Y-99084110D01*
X150698845Y-99314000D01*
X151892000Y-99314000D01*
X151892000Y-99294000D01*
X152146000Y-99294000D01*
X152146000Y-99314000D01*
X154432000Y-99314000D01*
X154432000Y-99294000D01*
X154686000Y-99294000D01*
X154686000Y-99314000D01*
X155879155Y-99314000D01*
X156000476Y-99084110D01*
X155955825Y-98936901D01*
X155830641Y-98674080D01*
X155656588Y-98440731D01*
X155440355Y-98245822D01*
X155323477Y-98176201D01*
X155388014Y-98141706D01*
X155614134Y-97956134D01*
X155799706Y-97730014D01*
X155937599Y-97472034D01*
X156022513Y-97192111D01*
X156051185Y-96901000D01*
X156022513Y-96609889D01*
X155937599Y-96329966D01*
X155799706Y-96071986D01*
X155614134Y-95845866D01*
X155388014Y-95660294D01*
X155130034Y-95522401D01*
X154850111Y-95437487D01*
X154631950Y-95416000D01*
X154486050Y-95416000D01*
X154267889Y-95437487D01*
X153987966Y-95522401D01*
X153729986Y-95660294D01*
X153503866Y-95845866D01*
X153479393Y-95875687D01*
X153458502Y-95806820D01*
X153399537Y-95696506D01*
X153320185Y-95599815D01*
X153223494Y-95520463D01*
X153113180Y-95461498D01*
X152993482Y-95425188D01*
X152869000Y-95412928D01*
X151169000Y-95412928D01*
X151044518Y-95425188D01*
X150924820Y-95461498D01*
X150814506Y-95520463D01*
X150717815Y-95599815D01*
X150638463Y-95696506D01*
X150579498Y-95806820D01*
X150543188Y-95926518D01*
X150530928Y-96051000D01*
X143416072Y-96051000D01*
X143416072Y-93569000D01*
X143403812Y-93444518D01*
X143367502Y-93324820D01*
X143308537Y-93214506D01*
X143229185Y-93117815D01*
X143132494Y-93038463D01*
X143022180Y-92979498D01*
X142902482Y-92943188D01*
X142778000Y-92930928D01*
X140178000Y-92930928D01*
X140053518Y-92943188D01*
X139933820Y-92979498D01*
X139823506Y-93038463D01*
X139726815Y-93117815D01*
X139647463Y-93214506D01*
X139588498Y-93324820D01*
X139552188Y-93444518D01*
X139539928Y-93569000D01*
X137888158Y-93569000D01*
X139382158Y-92075000D01*
X144989057Y-92075000D01*
X145016764Y-92356309D01*
X145098818Y-92626808D01*
X145232068Y-92876101D01*
X145411392Y-93094608D01*
X145629899Y-93273932D01*
X145879192Y-93407182D01*
X146149691Y-93489236D01*
X146360508Y-93510000D01*
X146501492Y-93510000D01*
X146712309Y-93489236D01*
X146982808Y-93407182D01*
X147232101Y-93273932D01*
X147450608Y-93094608D01*
X147629932Y-92876101D01*
X147763182Y-92626808D01*
X147845236Y-92356309D01*
X147872943Y-92075000D01*
X147845236Y-91793691D01*
X147763182Y-91523192D01*
X147629932Y-91273899D01*
X147450608Y-91055392D01*
X147232101Y-90876068D01*
X146982808Y-90742818D01*
X146712309Y-90660764D01*
X146501492Y-90640000D01*
X146360508Y-90640000D01*
X146149691Y-90660764D01*
X145879192Y-90742818D01*
X145629899Y-90876068D01*
X145411392Y-91055392D01*
X145232068Y-91273899D01*
X145098818Y-91523192D01*
X145016764Y-91793691D01*
X144989057Y-92075000D01*
X139382158Y-92075000D01*
X139465817Y-91991341D01*
X139495764Y-91966764D01*
X139593862Y-91847233D01*
X139666754Y-91710860D01*
X139666754Y-91710859D01*
X139711642Y-91562887D01*
X139719020Y-91487974D01*
X139723000Y-91447561D01*
X139723000Y-91447556D01*
X139726797Y-91409000D01*
X139723000Y-91370445D01*
X139723000Y-87653703D01*
X139906578Y-87555579D01*
X140170766Y-87338766D01*
X140387579Y-87074578D01*
X140548686Y-86773168D01*
X140632157Y-86498000D01*
X144003928Y-86498000D01*
X144016188Y-86622482D01*
X144052498Y-86742180D01*
X144111463Y-86852494D01*
X144190815Y-86949185D01*
X144287506Y-87028537D01*
X144397820Y-87087502D01*
X144517518Y-87123812D01*
X144642000Y-87136072D01*
X145256250Y-87133000D01*
X145415000Y-86974250D01*
X145415000Y-85725000D01*
X144165750Y-85725000D01*
X144007000Y-85883750D01*
X144003928Y-86498000D01*
X140632157Y-86498000D01*
X140647895Y-86446119D01*
X140681394Y-86106000D01*
X140647895Y-85765881D01*
X140548686Y-85438832D01*
X140387579Y-85137422D01*
X140170766Y-84873234D01*
X139957243Y-84698000D01*
X144003928Y-84698000D01*
X144007000Y-85312250D01*
X144165750Y-85471000D01*
X145415000Y-85471000D01*
X145415000Y-84221750D01*
X145669000Y-84221750D01*
X145669000Y-85471000D01*
X145689000Y-85471000D01*
X145689000Y-85725000D01*
X145669000Y-85725000D01*
X145669000Y-86974250D01*
X145827750Y-87133000D01*
X146442000Y-87136072D01*
X146566482Y-87123812D01*
X146686180Y-87087502D01*
X146796494Y-87028537D01*
X146893185Y-86949185D01*
X146972537Y-86852494D01*
X147031502Y-86742180D01*
X147037056Y-86723873D01*
X147103495Y-86790312D01*
X147354905Y-86958299D01*
X147634257Y-87074011D01*
X147930816Y-87133000D01*
X148233184Y-87133000D01*
X148529743Y-87074011D01*
X148809095Y-86958299D01*
X149060505Y-86790312D01*
X149274312Y-86576505D01*
X149442299Y-86325095D01*
X149558011Y-86045743D01*
X149617000Y-85749184D01*
X149617000Y-85446816D01*
X149558011Y-85150257D01*
X149442299Y-84870905D01*
X149274312Y-84619495D01*
X149060505Y-84405688D01*
X148809095Y-84237701D01*
X148529743Y-84121989D01*
X148233184Y-84063000D01*
X147930816Y-84063000D01*
X147634257Y-84121989D01*
X147354905Y-84237701D01*
X147103495Y-84405688D01*
X147037056Y-84472127D01*
X147031502Y-84453820D01*
X146972537Y-84343506D01*
X146893185Y-84246815D01*
X146796494Y-84167463D01*
X146686180Y-84108498D01*
X146566482Y-84072188D01*
X146442000Y-84059928D01*
X145827750Y-84063000D01*
X145669000Y-84221750D01*
X145415000Y-84221750D01*
X145256250Y-84063000D01*
X144642000Y-84059928D01*
X144517518Y-84072188D01*
X144397820Y-84108498D01*
X144287506Y-84167463D01*
X144190815Y-84246815D01*
X144111463Y-84343506D01*
X144052498Y-84453820D01*
X144016188Y-84573518D01*
X144003928Y-84698000D01*
X139957243Y-84698000D01*
X139906578Y-84656421D01*
X139605168Y-84495314D01*
X139278119Y-84396105D01*
X139023225Y-84371000D01*
X138852775Y-84371000D01*
X138597881Y-84396105D01*
X138270832Y-84495314D01*
X137969422Y-84656421D01*
X137705234Y-84873234D01*
X137488421Y-85137422D01*
X137452831Y-85204006D01*
X134121491Y-81872666D01*
X137194606Y-81872666D01*
X137228105Y-82212785D01*
X137327314Y-82539834D01*
X137488421Y-82841244D01*
X137705234Y-83105432D01*
X137969422Y-83322245D01*
X138270832Y-83483352D01*
X138597881Y-83582561D01*
X138852775Y-83607666D01*
X139023225Y-83607666D01*
X139278119Y-83582561D01*
X139605168Y-83483352D01*
X139906578Y-83322245D01*
X140170766Y-83105432D01*
X140387579Y-82841244D01*
X140548686Y-82539834D01*
X140647895Y-82212785D01*
X140681394Y-81872666D01*
X140647895Y-81532547D01*
X140548686Y-81205498D01*
X140387579Y-80904088D01*
X140170766Y-80639900D01*
X139906578Y-80423087D01*
X139605168Y-80261980D01*
X139278119Y-80162771D01*
X139023225Y-80137666D01*
X138852775Y-80137666D01*
X138597881Y-80162771D01*
X138270832Y-80261980D01*
X137969422Y-80423087D01*
X137705234Y-80639900D01*
X137488421Y-80904088D01*
X137327314Y-81205498D01*
X137228105Y-81532547D01*
X137194606Y-81872666D01*
X134121491Y-81872666D01*
X130516072Y-78267248D01*
X130516072Y-78035455D01*
X137248825Y-78035455D01*
X137313425Y-78248427D01*
X137463469Y-78553662D01*
X137670178Y-78823760D01*
X137925609Y-79048341D01*
X138219946Y-79218775D01*
X138541877Y-79328512D01*
X138811000Y-79210933D01*
X138811000Y-77766333D01*
X139065000Y-77766333D01*
X139065000Y-79210933D01*
X139334123Y-79328512D01*
X139656054Y-79218775D01*
X139950391Y-79048341D01*
X140205822Y-78823760D01*
X140412531Y-78553662D01*
X140562575Y-78248427D01*
X140627175Y-78035455D01*
X140509125Y-77766333D01*
X139065000Y-77766333D01*
X138811000Y-77766333D01*
X137366875Y-77766333D01*
X137248825Y-78035455D01*
X130516072Y-78035455D01*
X130516072Y-77243211D01*
X137248825Y-77243211D01*
X137366875Y-77512333D01*
X138811000Y-77512333D01*
X138811000Y-76067733D01*
X139065000Y-76067733D01*
X139065000Y-77512333D01*
X140509125Y-77512333D01*
X140627175Y-77243211D01*
X140562575Y-77030239D01*
X140412531Y-76725004D01*
X140205822Y-76454906D01*
X139953434Y-76233000D01*
X145223928Y-76233000D01*
X145223928Y-78133000D01*
X145236188Y-78257482D01*
X145272498Y-78377180D01*
X145331463Y-78487494D01*
X145410815Y-78584185D01*
X145507506Y-78663537D01*
X145617820Y-78722502D01*
X145737518Y-78758812D01*
X145862000Y-78771072D01*
X147762000Y-78771072D01*
X147886482Y-78758812D01*
X148006180Y-78722502D01*
X148116494Y-78663537D01*
X148213185Y-78584185D01*
X148292537Y-78487494D01*
X148351502Y-78377180D01*
X148387812Y-78257482D01*
X148400072Y-78133000D01*
X148400072Y-76233000D01*
X148387812Y-76108518D01*
X148351502Y-75988820D01*
X148292537Y-75878506D01*
X148213185Y-75781815D01*
X148116494Y-75702463D01*
X148057979Y-75671186D01*
X148216609Y-75433779D01*
X148336089Y-75145327D01*
X148397000Y-74839109D01*
X148397000Y-74526891D01*
X148336089Y-74220673D01*
X148216609Y-73932221D01*
X148043150Y-73672621D01*
X147822379Y-73451850D01*
X147794168Y-73433000D01*
X147822379Y-73414150D01*
X148043150Y-73193379D01*
X148216609Y-72933779D01*
X148336089Y-72645327D01*
X148397000Y-72339109D01*
X148397000Y-72026891D01*
X148336089Y-71720673D01*
X148216609Y-71432221D01*
X148043150Y-71172621D01*
X147822379Y-70951850D01*
X147562779Y-70778391D01*
X147274327Y-70658911D01*
X146968109Y-70598000D01*
X146655891Y-70598000D01*
X146349673Y-70658911D01*
X146061221Y-70778391D01*
X145801621Y-70951850D01*
X145580850Y-71172621D01*
X145407391Y-71432221D01*
X145287911Y-71720673D01*
X145227000Y-72026891D01*
X145227000Y-72339109D01*
X145287911Y-72645327D01*
X145407391Y-72933779D01*
X145580850Y-73193379D01*
X145801621Y-73414150D01*
X145829832Y-73433000D01*
X145801621Y-73451850D01*
X145580850Y-73672621D01*
X145407391Y-73932221D01*
X145287911Y-74220673D01*
X145227000Y-74526891D01*
X145227000Y-74839109D01*
X145287911Y-75145327D01*
X145407391Y-75433779D01*
X145566021Y-75671186D01*
X145507506Y-75702463D01*
X145410815Y-75781815D01*
X145331463Y-75878506D01*
X145272498Y-75988820D01*
X145236188Y-76108518D01*
X145223928Y-76233000D01*
X139953434Y-76233000D01*
X139950391Y-76230325D01*
X139656054Y-76059891D01*
X139334123Y-75950154D01*
X139065000Y-76067733D01*
X138811000Y-76067733D01*
X138541877Y-75950154D01*
X138219946Y-76059891D01*
X137925609Y-76230325D01*
X137670178Y-76454906D01*
X137463469Y-76725004D01*
X137313425Y-77030239D01*
X137248825Y-77243211D01*
X130516072Y-77243211D01*
X130516072Y-76539333D01*
X130503812Y-76414851D01*
X130467502Y-76295153D01*
X130408537Y-76184839D01*
X130329185Y-76088148D01*
X130232494Y-76008796D01*
X130122180Y-75949831D01*
X130002482Y-75913521D01*
X129878000Y-75901261D01*
X127678000Y-75901261D01*
X127553518Y-75913521D01*
X127533000Y-75919745D01*
X127533000Y-75125588D01*
X127553518Y-75131812D01*
X127678000Y-75144072D01*
X129878000Y-75144072D01*
X130002482Y-75131812D01*
X130122180Y-75095502D01*
X130232494Y-75036537D01*
X130329185Y-74957185D01*
X130408537Y-74860494D01*
X130467502Y-74750180D01*
X130503812Y-74630482D01*
X130516072Y-74506000D01*
X130516072Y-73802122D01*
X137248825Y-73802122D01*
X137313425Y-74015094D01*
X137463469Y-74320329D01*
X137670178Y-74590427D01*
X137925609Y-74815008D01*
X138219946Y-74985442D01*
X138541877Y-75095179D01*
X138811000Y-74977600D01*
X138811000Y-73533000D01*
X139065000Y-73533000D01*
X139065000Y-74977600D01*
X139334123Y-75095179D01*
X139656054Y-74985442D01*
X139950391Y-74815008D01*
X140205822Y-74590427D01*
X140412531Y-74320329D01*
X140562575Y-74015094D01*
X140627175Y-73802122D01*
X140509125Y-73533000D01*
X139065000Y-73533000D01*
X138811000Y-73533000D01*
X137366875Y-73533000D01*
X137248825Y-73802122D01*
X130516072Y-73802122D01*
X130516072Y-73009878D01*
X137248825Y-73009878D01*
X137366875Y-73279000D01*
X138811000Y-73279000D01*
X138811000Y-71834400D01*
X139065000Y-71834400D01*
X139065000Y-73279000D01*
X140509125Y-73279000D01*
X140627175Y-73009878D01*
X140562575Y-72796906D01*
X140412531Y-72491671D01*
X140205822Y-72221573D01*
X139950391Y-71996992D01*
X139656054Y-71826558D01*
X139334123Y-71716821D01*
X139065000Y-71834400D01*
X138811000Y-71834400D01*
X138541877Y-71716821D01*
X138219946Y-71826558D01*
X137925609Y-71996992D01*
X137670178Y-72221573D01*
X137463469Y-72491671D01*
X137313425Y-72796906D01*
X137248825Y-73009878D01*
X130516072Y-73009878D01*
X130516072Y-72306000D01*
X130503812Y-72181518D01*
X130467502Y-72061820D01*
X130408537Y-71951506D01*
X130329185Y-71854815D01*
X130232494Y-71775463D01*
X130122180Y-71716498D01*
X130002482Y-71680188D01*
X129878000Y-71667928D01*
X127678000Y-71667928D01*
X127553518Y-71680188D01*
X127533000Y-71686412D01*
X127533000Y-67453000D01*
X128711428Y-67453000D01*
X128711428Y-69453000D01*
X128723688Y-69577482D01*
X128759998Y-69697180D01*
X128818963Y-69807494D01*
X128898315Y-69904185D01*
X128995006Y-69983537D01*
X129105320Y-70042502D01*
X129225018Y-70078812D01*
X129349500Y-70091072D01*
X131254500Y-70091072D01*
X131378982Y-70078812D01*
X131498680Y-70042502D01*
X131608994Y-69983537D01*
X131705685Y-69904185D01*
X131785037Y-69807494D01*
X131834059Y-69715781D01*
X131975077Y-69828969D01*
X132250906Y-69972571D01*
X132469020Y-70043563D01*
X132715000Y-69923594D01*
X132715000Y-68580000D01*
X132695000Y-68580000D01*
X132695000Y-68326000D01*
X132715000Y-68326000D01*
X132715000Y-66982406D01*
X132969000Y-66982406D01*
X132969000Y-68326000D01*
X132989000Y-68326000D01*
X132989000Y-68580000D01*
X132969000Y-68580000D01*
X132969000Y-69923594D01*
X133214980Y-70043563D01*
X133433094Y-69972571D01*
X133708923Y-69828969D01*
X133951437Y-69634315D01*
X134106837Y-69449101D01*
X134254037Y-69628463D01*
X134495766Y-69826845D01*
X134771552Y-69974255D01*
X135070797Y-70065030D01*
X135382000Y-70095681D01*
X135693204Y-70065030D01*
X135992449Y-69974255D01*
X136268235Y-69826845D01*
X136509963Y-69628463D01*
X136708345Y-69386734D01*
X136855755Y-69110948D01*
X136944114Y-68819665D01*
X139535000Y-68819665D01*
X139535000Y-69102335D01*
X139590147Y-69379574D01*
X139698320Y-69640727D01*
X139855363Y-69875759D01*
X140055241Y-70075637D01*
X140290273Y-70232680D01*
X140551426Y-70340853D01*
X140828665Y-70396000D01*
X141111335Y-70396000D01*
X141388574Y-70340853D01*
X141649727Y-70232680D01*
X141884759Y-70075637D01*
X142084637Y-69875759D01*
X142241680Y-69640727D01*
X142349853Y-69379574D01*
X142405000Y-69102335D01*
X142405000Y-68819665D01*
X142349853Y-68542426D01*
X142241680Y-68281273D01*
X142084637Y-68046241D01*
X141884759Y-67846363D01*
X141649727Y-67689320D01*
X141388574Y-67581147D01*
X141111335Y-67526000D01*
X140828665Y-67526000D01*
X140551426Y-67581147D01*
X140290273Y-67689320D01*
X140055241Y-67846363D01*
X139855363Y-68046241D01*
X139698320Y-68281273D01*
X139590147Y-68542426D01*
X139535000Y-68819665D01*
X136944114Y-68819665D01*
X136946530Y-68811703D01*
X136969500Y-68578485D01*
X136969500Y-68327514D01*
X136946530Y-68094296D01*
X136855755Y-67795051D01*
X136708345Y-67519265D01*
X136509963Y-67277537D01*
X136268234Y-67079155D01*
X135992448Y-66931745D01*
X135693203Y-66840970D01*
X135382000Y-66810319D01*
X135070796Y-66840970D01*
X134771551Y-66931745D01*
X134495765Y-67079155D01*
X134254037Y-67277537D01*
X134106838Y-67456900D01*
X133951437Y-67271685D01*
X133708923Y-67077031D01*
X133433094Y-66933429D01*
X133214980Y-66862437D01*
X132969000Y-66982406D01*
X132715000Y-66982406D01*
X132469020Y-66862437D01*
X132250906Y-66933429D01*
X131975077Y-67077031D01*
X131834059Y-67190219D01*
X131785037Y-67098506D01*
X131705685Y-67001815D01*
X131608994Y-66922463D01*
X131498680Y-66863498D01*
X131378982Y-66827188D01*
X131254500Y-66814928D01*
X129349500Y-66814928D01*
X129225018Y-66827188D01*
X129105320Y-66863498D01*
X128995006Y-66922463D01*
X128898315Y-67001815D01*
X128818963Y-67098506D01*
X128759998Y-67208820D01*
X128723688Y-67328518D01*
X128711428Y-67453000D01*
X127533000Y-67453000D01*
X127533000Y-64908000D01*
X144003928Y-64908000D01*
X144016188Y-65032482D01*
X144052498Y-65152180D01*
X144111463Y-65262494D01*
X144190815Y-65359185D01*
X144287506Y-65438537D01*
X144397820Y-65497502D01*
X144517518Y-65533812D01*
X144642000Y-65546072D01*
X145256250Y-65543000D01*
X145415000Y-65384250D01*
X145415000Y-64135000D01*
X144165750Y-64135000D01*
X144007000Y-64293750D01*
X144003928Y-64908000D01*
X127533000Y-64908000D01*
X127533000Y-63108000D01*
X144003928Y-63108000D01*
X144007000Y-63722250D01*
X144165750Y-63881000D01*
X145415000Y-63881000D01*
X145415000Y-62631750D01*
X145669000Y-62631750D01*
X145669000Y-63881000D01*
X145689000Y-63881000D01*
X145689000Y-64135000D01*
X145669000Y-64135000D01*
X145669000Y-65384250D01*
X145827750Y-65543000D01*
X146442000Y-65546072D01*
X146566482Y-65533812D01*
X146686180Y-65497502D01*
X146796494Y-65438537D01*
X146893185Y-65359185D01*
X146972537Y-65262494D01*
X147031502Y-65152180D01*
X147037056Y-65133873D01*
X147103495Y-65200312D01*
X147354905Y-65368299D01*
X147634257Y-65484011D01*
X147930816Y-65543000D01*
X148233184Y-65543000D01*
X148529743Y-65484011D01*
X148809095Y-65368299D01*
X149060505Y-65200312D01*
X149274312Y-64986505D01*
X149442299Y-64735095D01*
X149558011Y-64455743D01*
X149617000Y-64159184D01*
X149617000Y-63856816D01*
X149558011Y-63560257D01*
X149442299Y-63280905D01*
X149274312Y-63029495D01*
X149060505Y-62815688D01*
X148809095Y-62647701D01*
X148529743Y-62531989D01*
X148233184Y-62473000D01*
X147930816Y-62473000D01*
X147634257Y-62531989D01*
X147354905Y-62647701D01*
X147103495Y-62815688D01*
X147037056Y-62882127D01*
X147031502Y-62863820D01*
X146972537Y-62753506D01*
X146893185Y-62656815D01*
X146796494Y-62577463D01*
X146686180Y-62518498D01*
X146566482Y-62482188D01*
X146442000Y-62469928D01*
X145827750Y-62473000D01*
X145669000Y-62631750D01*
X145415000Y-62631750D01*
X145256250Y-62473000D01*
X144642000Y-62469928D01*
X144517518Y-62482188D01*
X144397820Y-62518498D01*
X144287506Y-62577463D01*
X144190815Y-62656815D01*
X144111463Y-62753506D01*
X144052498Y-62863820D01*
X144016188Y-62983518D01*
X144003928Y-63108000D01*
X127533000Y-63108000D01*
X127533000Y-61341000D01*
X139528057Y-61341000D01*
X139555764Y-61622309D01*
X139637818Y-61892808D01*
X139771068Y-62142101D01*
X139950392Y-62360608D01*
X140168899Y-62539932D01*
X140418192Y-62673182D01*
X140688691Y-62755236D01*
X140899508Y-62776000D01*
X141040492Y-62776000D01*
X141251309Y-62755236D01*
X141521808Y-62673182D01*
X141771101Y-62539932D01*
X141989608Y-62360608D01*
X142168932Y-62142101D01*
X142302182Y-61892808D01*
X142384236Y-61622309D01*
X142411943Y-61341000D01*
X142384236Y-61059691D01*
X142302182Y-60789192D01*
X142168932Y-60539899D01*
X141989608Y-60321392D01*
X141771101Y-60142068D01*
X141521808Y-60008818D01*
X141251309Y-59926764D01*
X141040492Y-59906000D01*
X140899508Y-59906000D01*
X140688691Y-59926764D01*
X140418192Y-60008818D01*
X140168899Y-60142068D01*
X139950392Y-60321392D01*
X139771068Y-60539899D01*
X139637818Y-60789192D01*
X139555764Y-61059691D01*
X139528057Y-61341000D01*
X127533000Y-61341000D01*
X127533000Y-55642000D01*
X128663928Y-55642000D01*
X128663928Y-57642000D01*
X128676188Y-57766482D01*
X128712498Y-57886180D01*
X128771463Y-57996494D01*
X128850815Y-58093185D01*
X128947506Y-58172537D01*
X129057820Y-58231502D01*
X129177518Y-58267812D01*
X129302000Y-58280072D01*
X131302000Y-58280072D01*
X131426482Y-58267812D01*
X131546180Y-58231502D01*
X131656494Y-58172537D01*
X131753185Y-58093185D01*
X131832537Y-57996494D01*
X131891502Y-57886180D01*
X131924496Y-57777413D01*
X134346192Y-57777413D01*
X134441956Y-58041814D01*
X134731571Y-58182704D01*
X135043108Y-58264384D01*
X135364595Y-58283718D01*
X135683675Y-58239961D01*
X135988088Y-58134795D01*
X136162044Y-58041814D01*
X136257808Y-57777413D01*
X135302000Y-56821605D01*
X134346192Y-57777413D01*
X131924496Y-57777413D01*
X131927812Y-57766482D01*
X131940072Y-57642000D01*
X131940072Y-56704595D01*
X133660282Y-56704595D01*
X133704039Y-57023675D01*
X133809205Y-57328088D01*
X133902186Y-57502044D01*
X134166587Y-57597808D01*
X135122395Y-56642000D01*
X135481605Y-56642000D01*
X136437413Y-57597808D01*
X136701814Y-57502044D01*
X136842704Y-57212429D01*
X136924384Y-56900892D01*
X136943718Y-56579405D01*
X136899961Y-56260325D01*
X136794795Y-55955912D01*
X136701814Y-55781956D01*
X136437413Y-55686192D01*
X135481605Y-56642000D01*
X135122395Y-56642000D01*
X134166587Y-55686192D01*
X133902186Y-55781956D01*
X133761296Y-56071571D01*
X133679616Y-56383108D01*
X133660282Y-56704595D01*
X131940072Y-56704595D01*
X131940072Y-55642000D01*
X131927812Y-55517518D01*
X131924497Y-55506587D01*
X134346192Y-55506587D01*
X135302000Y-56462395D01*
X136257808Y-55506587D01*
X136162044Y-55242186D01*
X135872429Y-55101296D01*
X135560892Y-55019616D01*
X135239405Y-55000282D01*
X134920325Y-55044039D01*
X134615912Y-55149205D01*
X134441956Y-55242186D01*
X134346192Y-55506587D01*
X131924497Y-55506587D01*
X131891502Y-55397820D01*
X131832537Y-55287506D01*
X131753185Y-55190815D01*
X131656494Y-55111463D01*
X131546180Y-55052498D01*
X131426482Y-55016188D01*
X131302000Y-55003928D01*
X129302000Y-55003928D01*
X129177518Y-55016188D01*
X129057820Y-55052498D01*
X128947506Y-55111463D01*
X128850815Y-55190815D01*
X128771463Y-55287506D01*
X128712498Y-55397820D01*
X128676188Y-55517518D01*
X128663928Y-55642000D01*
X127533000Y-55642000D01*
X127533000Y-53937000D01*
X139150928Y-53937000D01*
X139150928Y-55537000D01*
X139163188Y-55661482D01*
X139199498Y-55781180D01*
X139258463Y-55891494D01*
X139337815Y-55988185D01*
X139434506Y-56067537D01*
X139544820Y-56126502D01*
X139664518Y-56162812D01*
X139789000Y-56175072D01*
X141389000Y-56175072D01*
X141513482Y-56162812D01*
X141633180Y-56126502D01*
X141743494Y-56067537D01*
X141840185Y-55988185D01*
X141919537Y-55891494D01*
X141978502Y-55781180D01*
X141994117Y-55729702D01*
X142275903Y-55729702D01*
X142347486Y-55973671D01*
X142602996Y-56094571D01*
X142877184Y-56163300D01*
X143159512Y-56177217D01*
X143439130Y-56135787D01*
X143705292Y-56040603D01*
X143830514Y-55973671D01*
X143902097Y-55729702D01*
X143089000Y-54916605D01*
X142275903Y-55729702D01*
X141994117Y-55729702D01*
X142014812Y-55661482D01*
X142027072Y-55537000D01*
X142027072Y-55529785D01*
X142096298Y-55550097D01*
X142909395Y-54737000D01*
X143268605Y-54737000D01*
X144081702Y-55550097D01*
X144325671Y-55478514D01*
X144446571Y-55223004D01*
X144515300Y-54948816D01*
X144529217Y-54666488D01*
X144487787Y-54386870D01*
X144392603Y-54120708D01*
X144325671Y-53995486D01*
X144081702Y-53923903D01*
X143268605Y-54737000D01*
X142909395Y-54737000D01*
X142096298Y-53923903D01*
X142027072Y-53944215D01*
X142027072Y-53937000D01*
X142014812Y-53812518D01*
X141994118Y-53744298D01*
X142275903Y-53744298D01*
X143089000Y-54557395D01*
X143902097Y-53744298D01*
X143830514Y-53500329D01*
X143575004Y-53379429D01*
X143300816Y-53310700D01*
X143018488Y-53296783D01*
X142738870Y-53338213D01*
X142472708Y-53433397D01*
X142347486Y-53500329D01*
X142275903Y-53744298D01*
X141994118Y-53744298D01*
X141978502Y-53692820D01*
X141919537Y-53582506D01*
X141840185Y-53485815D01*
X141743494Y-53406463D01*
X141633180Y-53347498D01*
X141513482Y-53311188D01*
X141389000Y-53298928D01*
X139789000Y-53298928D01*
X139664518Y-53311188D01*
X139544820Y-53347498D01*
X139434506Y-53406463D01*
X139337815Y-53485815D01*
X139258463Y-53582506D01*
X139199498Y-53692820D01*
X139163188Y-53812518D01*
X139150928Y-53937000D01*
X127533000Y-53937000D01*
X127533000Y-51093000D01*
X150657928Y-51093000D01*
X150657928Y-52793000D01*
X150670188Y-52917482D01*
X150706498Y-53037180D01*
X150765463Y-53147494D01*
X150844815Y-53244185D01*
X150941506Y-53323537D01*
X151051820Y-53382502D01*
X151132466Y-53406966D01*
X151048412Y-53482731D01*
X150874359Y-53716080D01*
X150749175Y-53978901D01*
X150704524Y-54126110D01*
X150825845Y-54356000D01*
X152019000Y-54356000D01*
X152019000Y-54336000D01*
X152273000Y-54336000D01*
X152273000Y-54356000D01*
X154559000Y-54356000D01*
X154559000Y-54336000D01*
X154813000Y-54336000D01*
X154813000Y-54356000D01*
X156006155Y-54356000D01*
X156127476Y-54126110D01*
X156082825Y-53978901D01*
X155957641Y-53716080D01*
X155783588Y-53482731D01*
X155567355Y-53287822D01*
X155450477Y-53218201D01*
X155515014Y-53183706D01*
X155741134Y-52998134D01*
X155926706Y-52772014D01*
X156064599Y-52514034D01*
X156149513Y-52234111D01*
X156178185Y-51943000D01*
X156149513Y-51651889D01*
X156064599Y-51371966D01*
X155926706Y-51113986D01*
X155741134Y-50887866D01*
X155515014Y-50702294D01*
X155257034Y-50564401D01*
X154977111Y-50479487D01*
X154758950Y-50458000D01*
X154613050Y-50458000D01*
X154394889Y-50479487D01*
X154114966Y-50564401D01*
X153856986Y-50702294D01*
X153630866Y-50887866D01*
X153606393Y-50917687D01*
X153585502Y-50848820D01*
X153526537Y-50738506D01*
X153447185Y-50641815D01*
X153350494Y-50562463D01*
X153240180Y-50503498D01*
X153120482Y-50467188D01*
X152996000Y-50454928D01*
X151296000Y-50454928D01*
X151171518Y-50467188D01*
X151051820Y-50503498D01*
X150941506Y-50562463D01*
X150844815Y-50641815D01*
X150765463Y-50738506D01*
X150706498Y-50848820D01*
X150670188Y-50968518D01*
X150657928Y-51093000D01*
X127533000Y-51093000D01*
X127533000Y-50317000D01*
X156312001Y-50317000D01*
X156312000Y-55855000D01*
M02*
