M48
; DRILL file {KiCad (5.1.4)-1} date 07-Sep-19 6:35:02 PM
; FORMAT={-:-/ absolute / inch / decimal}
; #@! TF.CreationDate,2019-09-07T18:35:02-05:00
; #@! TF.GenerationSoftware,Kicad,Pcbnew,(5.1.4)-1
; #@! TF.FileFunction,Plated,1,2,PTH
FMAT,2
INCH
T1C0.0315
T2C0.0354
T3C0.0394
T4C0.0433
T5C0.0630
%
G90
G05
T1
X5.765Y-3.625
X5.765Y-3.925
X5.55Y-2.415
X5.55Y-2.715
X5.535Y-2.155
X5.6334Y-2.155
T2
X5.73Y-3.37
X5.83Y-3.37
X5.73Y-2.52
X5.83Y-2.52
X5.78Y-2.8419
X5.78Y-2.9403
X5.78Y-3.0387
T3
X5.985Y-3.815
X5.985Y-3.915
X6.085Y-3.815
X6.085Y-3.915
X5.13Y-2.23
X5.3269Y-2.23
X5.99Y-2.045
X5.99Y-2.145
X6.09Y-2.045
X6.09Y-2.145
T4
X5.07Y-3.39
X5.47Y-3.39
X5.13Y-2.695
X5.23Y-2.695
X5.33Y-2.695
X5.07Y-3.0567
X5.47Y-3.0567
X5.07Y-2.89
X5.47Y-2.89
X5.07Y-3.2233
X5.47Y-3.2233
T5
X5.3338Y-3.735
X5.4519Y-3.92
X5.57Y-3.735
T0
M30
